<svg xmlns="http://www.w3.org/2000/svg" width="56.409" height="56" viewBox="0 0 56.409 56">
  <g id="Group_101" data-name="Group 101" transform="translate(-66.654 -112.355)">
    <g id="email" transform="translate(71.122 112.355)">
      <path id="Path_211" data-name="Path 211" d="M123.659,131.355V164a3.35,3.35,0,0,1-3.351,3.348H75.07A3.35,3.35,0,0,1,71.719,164V131.355" transform="translate(-71.719 -115.406)" fill="#dfeef7"/>
      <path id="Path_212" data-name="Path 212" d="M123.631,128.257l-4.991-3.167-12.132-7.7L99.4,112.886a3.233,3.233,0,0,0-3.549,0l-7.062,4.506-12.038,7.681-4.992,3.185" transform="translate(-71.726 -112.355)" fill="#dfeef7"/>
    </g>
    <path id="Path_213" data-name="Path 213" d="M115.968,146.629V125.9c0-2.29-1.5-4.146-3.349-4.146H77.45c-1.851,0-3.349,1.856-3.349,4.146v20.727l20.776,13.092Z" transform="translate(-0.98 -1.51)" fill="#f8f6f6"/>
    <circle id="Ellipse_16" data-name="Ellipse 16" cx="10.907" cy="10.907" r="10.907" transform="translate(82.995 127.423)" fill="#fd9"/>
    <g id="email-2" data-name="email" transform="translate(68 115.415)">
      <path id="Path_214" data-name="Path 214" d="M119.94,135v32.643a3.35,3.35,0,0,1-3.351,3.348H71.351A3.35,3.35,0,0,1,68,167.643V135" transform="translate(-68 -119.051)" fill="none" stroke="#1f3951" stroke-linejoin="round" stroke-width="2"/>
      <line id="Line_31" data-name="Line 31" x1="5.002" y2="3.185" transform="translate(0.034 12.69)" fill="none" stroke="#1f3951" stroke-linecap="round" stroke-linejoin="round" stroke-width="2"/>
      <path id="Path_215" data-name="Path 215" d="M106.123,121.038,99,116.531a3.245,3.245,0,0,0-3.556,0l-7.076,4.506" transform="translate(-71.323 -116)" fill="none" stroke="#1f3951" stroke-linecap="round" stroke-linejoin="round" stroke-width="2"/>
      <line id="Line_32" data-name="Line 32" x1="5.001" y1="3.167" transform="translate(46.904 12.708)" fill="none" stroke="#1f3951" stroke-linecap="round" stroke-linejoin="round" stroke-width="2"/>
      <path id="Path_216" data-name="Path 216" d="M119.912,148.04l-24.23,15.37a3.226,3.226,0,0,1-3.549,0L68.041,148.04" transform="translate(-68.007 -121.222)" fill="none" stroke="#1f3951" stroke-linecap="round" stroke-linejoin="round" stroke-width="2"/>
      <path id="Path_217" data-name="Path 217" d="M74,142.146V125.358A3.354,3.354,0,0,1,77.349,122h35.169a3.354,3.354,0,0,1,3.349,3.358v16.788" transform="translate(-68.964 -116.964)" fill="none" stroke="#1f3951" stroke-linecap="round" stroke-linejoin="round" stroke-width="2"/>
      <g id="Group_78" data-name="Group 78" transform="translate(15.305 11.354)">
        <path id="Path_218" data-name="Path 218" d="M99.089,152.113a14.413,14.413,0,0,1-8.725-2.522c-4.38-3.233-5.146-9.68-2.678-14.35a11.056,11.056,0,0,1,12.06-5.418,10.06,10.06,0,0,1,8.04,9.359c0,.135,0,.27,0,.405.165,9.641-7.473,6.228-7.473,3.737v-8.357" transform="translate(-86.294 -129.573)" fill="none" stroke="#1f3951" stroke-linecap="round" stroke-linejoin="round" stroke-width="2"/>
        <path id="Path_219" data-name="Path 219" d="M100.627,136.7a6.121,6.121,0,0,0-4.184.18,5.979,5.979,0,0,0-2.922,6.944,4.17,4.17,0,0,0,2.688,2.865c2.693.829,4.226-.651,5-2.495" transform="translate(-87.42 -130.674)" fill="none" stroke="#1f3951" stroke-linecap="round" stroke-linejoin="round" stroke-width="2"/>
      </g>
    </g>
  </g>
</svg>
