<svg xmlns="http://www.w3.org/2000/svg" width="36" height="23.121" viewBox="0 0 36 23.121">
  <g id="Group_125" data-name="Group 125" transform="translate(-1794.159 -1642.211)">
    <path id="Path_324" data-name="Path 324" d="M2117.093,1754.471a.643.643,0,0,1-.541-.294l-4.894-12.874h-2.149a.644.644,0,1,1,0-1.287h2.5a.644.644,0,0,1,.541.294l5.084,13.168a.644.644,0,0,1-.54.993Z" transform="translate(-287.742 -89.439)" fill="#1f3951"/>
    <path id="Path_325" data-name="Path 325" d="M2018.534,1741.3H2016a.644.644,0,1,1,0-1.287h2.535a.644.644,0,1,1,0,1.287Z" transform="translate(-202.239 -89.422)" fill="#1f3951"/>
    <path id="Path_326" data-name="Path 326" d="M1927.041,1741.3h-2.4a.644.644,0,0,1,0-1.287h2.4a.644.644,0,1,1,0,1.287Z" transform="translate(-118.709 -89.422)" fill="#1f3951"/>
    <path id="Path_327" data-name="Path 327" d="M1796.721,1754.471a.644.644,0,0,1-.54-.993l5.17-13.168a.644.644,0,0,1,.541-.294h.776a.644.644,0,0,1,0,1.287h-.426l-4.98,12.874A.643.643,0,0,1,1796.721,1754.471Z" transform="translate(-1.755 -89.439)" fill="#1f3951"/>
    <path id="Path_328" data-name="Path 328" d="M1885.492,1659.2a.643.643,0,0,1-.644-.644,3.342,3.342,0,0,1,1.354-2.609,1.944,1.944,0,0,0,0-3.334,3.191,3.191,0,0,1,0-5.219,2.107,2.107,0,0,0,.944-1.667v-2.872a.644.644,0,1,1,1.287,0v2.872a3.341,3.341,0,0,1-1.354,2.609,1.944,1.944,0,0,0,0,3.334,3.191,3.191,0,0,1,0,5.219,2.106,2.106,0,0,0-.944,1.667A.643.643,0,0,1,1885.492,1659.2Z" transform="translate(-82.917 0)" fill="#1f3951"/>
    <path id="Path_329" data-name="Path 329" d="M1895.536,1645.245a.643.643,0,0,1-.458-.191l-1.271-1.288-1.285,1.268a.644.644,0,0,1-.9-.916l1.743-1.72a.644.644,0,0,1,.452-.186h0a.645.645,0,0,1,.454.192l1.723,1.747a.643.643,0,0,1-.458,1.1Z" transform="translate(-88.931 0)" fill="#1f3951"/>
    <path id="Path_330" data-name="Path 330" d="M1978.107,1659.2a.643.643,0,0,1-.644-.644,3.341,3.341,0,0,1,1.354-2.609,1.944,1.944,0,0,0,0-3.334,3.191,3.191,0,0,1,0-5.219,2.107,2.107,0,0,0,.944-1.667v-2.872a.644.644,0,1,1,1.287,0v2.872a3.342,3.342,0,0,1-1.354,2.609,1.944,1.944,0,0,0,0,3.334,3.191,3.191,0,0,1,0,5.219,2.106,2.106,0,0,0-.944,1.667A.643.643,0,0,1,1978.107,1659.2Z" transform="translate(-167.594 0)" fill="#1f3951"/>
    <path id="Path_331" data-name="Path 331" d="M1988.15,1645.245a.642.642,0,0,1-.458-.191l-1.271-1.288-1.285,1.268a.644.644,0,0,1-.9-.916l1.743-1.72a.643.643,0,0,1,.452-.186h0a.645.645,0,0,1,.454.192l1.723,1.747a.643.643,0,0,1-.458,1.1Z" transform="translate(-173.609 0)" fill="#1f3951"/>
    <path id="Path_332" data-name="Path 332" d="M2070.72,1659.2a.643.643,0,0,1-.644-.644,3.341,3.341,0,0,1,1.354-2.609,1.944,1.944,0,0,0,0-3.334,3.191,3.191,0,0,1,0-5.219,2.107,2.107,0,0,0,.944-1.667v-2.872a.644.644,0,1,1,1.287,0v2.872a3.341,3.341,0,0,1-1.354,2.609,1.944,1.944,0,0,0,0,3.334,3.191,3.191,0,0,1,0,5.219,2.106,2.106,0,0,0-.944,1.667A.644.644,0,0,1,2070.72,1659.2Z" transform="translate(-252.271 0)" fill="#1f3951"/>
    <path id="Path_333" data-name="Path 333" d="M2080.765,1645.245a.642.642,0,0,1-.458-.192l-1.271-1.288-1.285,1.268a.644.644,0,0,1-.9-.916l1.743-1.72a.644.644,0,0,1,.91.006l1.723,1.746a.644.644,0,0,1-.458,1.1Z" transform="translate(-258.286)" fill="#1f3951"/>
    <path id="Path_334" data-name="Path 334" d="M1829.589,1898.246h-34.859a.648.648,0,0,1,0-1.287h34.859a.648.648,0,0,1,0,1.287Z" transform="translate(0 -232.914)" fill="#1f3951"/>
  </g>
</svg>
