<svg xmlns="http://www.w3.org/2000/svg" width="36" height="36" viewBox="0 0 36 36">
  <g id="Group_120" data-name="Group 120" transform="translate(-240.697 -2324.131)">
    <g id="Group_117" data-name="Group 117" transform="translate(240.697 2324.131)">
      <path id="Path_284" data-name="Path 284" d="M258.7,2360.131a18,18,0,1,1,12.728-5.272A17.881,17.881,0,0,1,258.7,2360.131Zm0-34.894a16.893,16.893,0,1,0,11.946,4.948A16.784,16.784,0,0,0,258.7,2325.237Z" transform="translate(-240.697 -2324.131)" fill="#1f3951"/>
      <path id="Path_285" data-name="Path 285" d="M310.544,2419.345a.553.553,0,0,1-.391-.944l24.662-24.662a.553.553,0,0,1,.782.782l-24.662,24.662A.551.551,0,0,1,310.544,2419.345Z" transform="translate(-304.88 -2388.455)" fill="#1f3951"/>
    </g>
    <g id="Group_119" data-name="Group 119" transform="translate(246.583 2329.031)">
      <path id="Path_286" data-name="Path 286" d="M356.342,2437.661a.553.553,0,0,1-.516-.355,9.037,9.037,0,0,1-.608-3.478,17.949,17.949,0,0,1,2.7-8.781c1.932-3.143,4.341-4.875,6.785-4.875,1.976,0,3.846,1.073,5.558,3.19a.553.553,0,0,1-.86.7c-1.491-1.844-3.072-2.779-4.7-2.779-2.015,0-4.144,1.584-5.842,4.347a16.785,16.785,0,0,0-2.533,8.2,8.009,8.009,0,0,0,.534,3.081.554.554,0,0,1-.516.752Z" transform="translate(-352.659 -2417.99)" fill="#1f3951"/>
      <path id="Path_287" data-name="Path 287" d="M381.464,2498.142a9.346,9.346,0,0,1-8.07-4.709.553.553,0,1,1,.952-.563,8.25,8.25,0,0,0,7.118,4.166,8.612,8.612,0,0,0,8.375-8.813,16.841,16.841,0,0,0-2.723-8.47.553.553,0,1,1,.927-.6,18.02,18.02,0,0,1,2.9,9.073A9.719,9.719,0,0,1,381.464,2498.142Z" transform="translate(-369.423 -2472.384)" fill="#1f3951"/>
      <path id="Path_288" data-name="Path 288" d="M397.251,2431.887a.552.552,0,0,1-.23-.051,5.172,5.172,0,0,1-3.3-4.528,7.766,7.766,0,0,1,1.912-4.615,6.28,6.28,0,0,1,4.73-2.52.553.553,0,0,1,0,1.106c-3,0-5.536,3.7-5.536,6.029a4.09,4.09,0,0,0,2.653,3.523.553.553,0,0,1-.231,1.056Z" transform="translate(-388.324 -2417.99)" fill="#1f3951"/>
      <path id="Path_289" data-name="Path 289" d="M467.424,2491.9a7.117,7.117,0,0,1-.807-.046.553.553,0,1,1,.114-1.1,6.109,6.109,0,0,0,.693.04c3.052,0,5.536-1.853,5.536-4.13a4.834,4.834,0,0,0-.342-1.661.553.553,0,1,1,1.035-.39,5.939,5.939,0,0,1,.413,2.052C474.066,2489.548,471.087,2491.9,467.424,2491.9Z" transform="translate(-455.384 -2477.343)" fill="#1f3951"/>
      <path id="Path_290" data-name="Path 290" d="M480.325,2451.622a.553.553,0,0,1-.495-.306,3.739,3.739,0,0,0-2.986-2.237.553.553,0,1,1,0-1.106,3.9,3.9,0,0,1,2.4.9,5.872,5.872,0,0,1,1.572,1.95.554.554,0,0,1-.494.8Z" transform="translate(-464.803 -2443.74)" fill="#1f3951"/>
      <path id="Path_291" data-name="Path 291" d="M449.767,2394.3a2.811,2.811,0,0,1-.8-.177,4.284,4.284,0,0,0-1.276-.259,4.6,4.6,0,0,0-1.294.245c-.494.146-.921.273-1.275.009a.788.788,0,0,1-.306-.668,2.874,2.874,0,1,1,5.748,0,.817.817,0,0,1-.318.7A.782.782,0,0,1,449.767,2394.3Zm-2.077-1.542a5.271,5.271,0,0,1,1.611.311l.124.039a1.768,1.768,0,0,0-3.465-.024l.122-.036A5.6,5.6,0,0,1,447.69,2392.758Z" transform="translate(-435.65 -2390.576)" fill="#1f3951"/>
      <g id="Group_118" data-name="Group 118" transform="translate(0 0.963)">
        <path id="Path_292" data-name="Path 292" d="M400.32,2407.475a.546.546,0,0,1-.227-.049,3.815,3.815,0,0,1-2.19-3.227.553.553,0,0,1,1.106-.036,2.7,2.7,0,0,0,1.54,2.255.553.553,0,0,1-.228,1.057Z" transform="translate(-392.196 -2403.63)" fill="#1f3951"/>
        <path id="Path_293" data-name="Path 293" d="M362.518,2450.195a2.614,2.614,0,0,1-1.694-.546,2.741,2.741,0,0,1-.929-1.911A.553.553,0,0,1,361,2447.7a1.624,1.624,0,0,0,.525,1.089,1.977,1.977,0,0,0,1.623.231.553.553,0,0,1,.2,1.088A4.571,4.571,0,0,1,362.518,2450.195Z" transform="translate(-356.991 -2443.959)" fill="#1f3951"/>
        <path id="Path_294" data-name="Path 294" d="M336.051,2510.17a4.506,4.506,0,0,1-3.246-1.243.553.553,0,0,1,.816-.746,3.413,3.413,0,0,0,2.429.883.553.553,0,1,1,0,1.106Z" transform="translate(-331.766 -2500.305)" fill="#1f3951"/>
        <path id="Path_295" data-name="Path 295" d="M323.839,2566.737a.543.543,0,0,1-.074-.005,26.131,26.131,0,0,0-2.7-.186.553.553,0,0,1,.006-1.106h.006a26.857,26.857,0,0,1,2.834.2.553.553,0,0,1-.073,1.1Z" transform="translate(-320.519 -2553.507)" fill="#1f3951"/>
        <path id="Path_296" data-name="Path 296" d="M324.045,2617.771a.553.553,0,0,1-.434-.9c1.549-1.964,2.718-1.728,2.937-1.661l-.325,1.057a.127.127,0,0,0,.033.009c-.007,0-.691-.1-1.776,1.28A.553.553,0,0,1,324.045,2617.771Z" transform="translate(-323.273 -2599.569)" fill="#1f3951"/>
      </g>
      <path id="Path_297" data-name="Path 297" d="M529.765,2407.493a.553.553,0,0,1-.228-1.058,2.7,2.7,0,0,0,1.54-2.255.553.553,0,0,1,1.106.037,3.816,3.816,0,0,1-2.19,3.227A.554.554,0,0,1,529.765,2407.493Z" transform="translate(-513.822 -2402.684)" fill="#1f3951"/>
      <path id="Path_298" data-name="Path 298" d="M581.84,2510.169a.553.553,0,0,1,0-1.106,3.47,3.47,0,0,0,2.427-.88.553.553,0,1,1,.819.743A4.5,4.5,0,0,1,581.84,2510.169Z" transform="translate(-562.057 -2499.341)" fill="#1f3951"/>
      <path id="Path_299" data-name="Path 299" d="M594.922,2566.737a.553.553,0,0,1-.073-1.1,26.857,26.857,0,0,1,2.834-.2h.006a.553.553,0,0,1,.006,1.106,26.248,26.248,0,0,0-2.7.186A.545.545,0,0,1,594.922,2566.737Z" transform="translate(-574.174 -2552.544)" fill="#1f3951"/>
      <path id="Path_300" data-name="Path 300" d="M600.082,2617.772a.552.552,0,0,1-.435-.211c-1.053-1.336-1.737-1.29-1.743-1.288a.553.553,0,0,1-.325-1.057c.219-.067,1.388-.3,2.937,1.661a.553.553,0,0,1-.434.9Z" transform="translate(-576.786 -2598.608)" fill="#1f3951"/>
      <path id="Path_301" data-name="Path 301" d="M583.257,2667.805a.553.553,0,0,1-.545-.461c-.285-1.692-1.161-1.725-1.176-1.725h0a.553.553,0,0,1-.026-1.106c.077,0,1.845-.013,2.293,2.647a.553.553,0,0,1-.454.637A.566.566,0,0,1,583.257,2667.805Z" transform="translate(-561.763 -2644.312)" fill="#1f3951"/>
      <path id="Path_302" data-name="Path 302" d="M361.36,2669.548a.553.553,0,0,1-.548-.484c-.338-2.676,1.361-3.175,1.433-3.2l.294,1.066.014,0c-.035.012-.856.31-.643,1.994a.553.553,0,0,1-.48.618A.564.564,0,0,1,361.36,2669.548Z" transform="translate(-357.799 -2645.567)" fill="#1f3951"/>
    </g>
  </g>
</svg>
