<svg xmlns="http://www.w3.org/2000/svg" width="37.648" height="42.503" viewBox="0 0 37.648 42.503">
  <g id="Group_127" data-name="Group 127" transform="matrix(0.966, -0.259, 0.259, 0.966, -505.427, -805.423)">
    <g id="Group_126" data-name="Group 126" transform="translate(277.72 916.357)">
      <path id="Path_335" data-name="Path 335" d="M623.1,993.294a.579.579,0,0,1-.57-.686,10.079,10.079,0,0,0,.163-1.206.579.579,0,0,1,1.157.054,10.955,10.955,0,0,1-.182,1.365A.579.579,0,0,1,623.1,993.294Z" transform="translate(-596.541 -985.227)" fill="#1f3951"/>
      <path id="Path_336" data-name="Path 336" d="M283.359,1062.542a.571.571,0,0,1-.564-.55,14.329,14.329,0,0,1,1.41-6.151,15.931,15.931,0,0,1,3.786-5.122,20.9,20.9,0,0,1,7.57-4.247c7.6-2.51,10.877-7.462,12.292-11.175a.561.561,0,0,1,.732-.329.584.584,0,0,1,.321.75c-1.5,3.947-4.979,9.207-13,11.856a19.819,19.819,0,0,0-7.138,3.986,14.793,14.793,0,0,0-3.519,4.724,13.425,13.425,0,0,0-1.327,5.651.574.574,0,0,1-.538.605Z" transform="translate(-282.4 -1026.542)" fill="#1f3951"/>
      <path id="Path_337" data-name="Path 337" d="M279.153,948.9a.566.566,0,0,1-.478-.87c1.838-2.879,4.092-3.043,9.029-3.4,1.644-.12,3.691-.269,6.142-.551a15.171,15.171,0,0,0,9.887-4.908l-2.477.187a.566.566,0,0,1-.281-1.077,10.534,10.534,0,0,0,3.964-3.293c1.258-2.068,2.547-5.761,1.538-11.615a30.6,30.6,0,0,0-1.147-4.506,6.623,6.623,0,0,1-.352.733,8.246,8.246,0,0,1-5.41,3.814A13.153,13.153,0,0,0,292,929.328a2.668,2.668,0,0,1-.439.77.567.567,0,0,1-.949-.6c.011-.024.129-.272.362-.666a3.384,3.384,0,0,0,.139-.71,7.626,7.626,0,0,1-2.663,1.238,18.693,18.693,0,0,0-6.04,3.041c-2.109,1.546-3.293,3.96-3.519,7.176a16.438,16.438,0,0,0,.314,4.491.567.567,0,0,1-1.1.268,17.268,17.268,0,0,1-.346-4.805,10.417,10.417,0,0,1,3.981-8.041,19.937,19.937,0,0,1,6.364-3.206c1.425-.458,2.286-.734,3.059-1.909a.567.567,0,0,1,1.033.217c.009.054.032.205.051.421q.2-.251.434-.512a13.536,13.536,0,0,1,6.6-4.182c5.3-1.4,5.361-5.353,5.361-5.393a.567.567,0,0,1,1.085-.229,30.008,30.008,0,0,1,1.871,6.483,23.3,23.3,0,0,1,.3,6.1,14.606,14.606,0,0,1-1.982,6.29,9.1,9.1,0,0,1-2.384,2.477l1.4-.106a.566.566,0,0,1,.525.862,12.734,12.734,0,0,1-2.744,2.9,16.744,16.744,0,0,1-8.731,3.5c-2.47.284-4.529.434-6.184.555-4.82.352-6.623.483-8.156,2.883A.567.567,0,0,1,279.153,948.9Z" transform="translate(-277.72 -916.357)" fill="#1f3951"/>
    </g>
    <path id="Path_338" data-name="Path 338" d="M427.124,1201.7" transform="translate(-138.108 -263.769)" fill="none" stroke="#474747" stroke-linecap="round" stroke-linejoin="round" stroke-width="15"/>
  </g>
</svg>
