<svg xmlns="http://www.w3.org/2000/svg" width="55.256" height="35.871" viewBox="0 0 55.256 35.871">
  <g id="Group_108" data-name="Group 108" transform="translate(0.502)">
    <g id="Group_106" data-name="Group 106" transform="translate(1.241 0)">
      <path id="Path_273" data-name="Path 273" d="M391.126,320.215c5.736-4.317,14.529-2.686,21.03-1.408l.161.113,1.937-.992c1.426-.834,2.911-1.269,4.035-.288h0c1.123.98.625,2.279-.33,3.524l-1.277,1.569h.027a10.418,10.418,0,0,1,.542,6.063,29.955,29.955,0,0,0-.58,7.691c.187,2.695.571,5.425.037,8.107h-.027l1.277,1.568c.955,1.245,1.453,2.544.33,3.525h0c-1.124.981-2.609.546-4.035-.288l-1.937-.993-.178.093c-8.2,4.03-17.948,1.952-21.517.027l1.479-.992c-6.617,2.835-14.608,3.561-21.45,1.034v-.162l-1.406.993c-1.165.834-2.38,1.268-3.3.288h0c-.918-.981-.511-2.28.269-3.525l.866-1.568.056-.018c-.91-2.566-.248-5.154.026-7.755.492-4.669-1.535-9.531-.078-14.091l-.02-.025-.85-1.539c-.781-1.245-1.187-2.544-.269-3.524h0c.918-.981,2.133-.546,3.3.288l1.406.992.048-.028c4.715-2.792,14.85-2.618,18.6-1.6a13.614,13.614,0,0,1,3.816,1.6Z" transform="translate(-365.421 -316.611)" fill="#f8f6f6"/>
    </g>
    <g id="Group_107" data-name="Group 107" transform="translate(0 1.17)">
      <path id="Path_274" data-name="Path 274" d="M389.859,321.41c5.736-4.317,14.529-2.686,21.029-1.408l.161.113,1.938-.992c1.426-.834,2.911-1.269,4.035-.288h0c1.123.981.625,2.279-.33,3.525l-1.278,1.568h.027a10.418,10.418,0,0,1,.543,6.063,30,30,0,0,0-.581,7.691c.187,2.695.571,5.425.037,8.107h-.027l1.278,1.568c.955,1.245,1.453,2.543.33,3.525h0c-1.124.982-2.61.546-4.035-.288l-1.938-.993-.178.093c-8.2,4.03-17.947,1.952-21.516.027l1.479-.992c-6.617,2.836-14.608,3.561-21.451,1.034V349.6l-1.405.993c-1.166.834-2.38,1.269-3.3.288h0c-.918-.982-.511-2.28.269-3.525l.866-1.568.057-.019c-.911-2.566-.249-5.154.025-7.755.493-4.669-1.535-9.531-.077-14.091l-.021-.025-.851-1.538c-.781-1.246-1.187-2.544-.269-3.525h0c.919-.981,2.133-.546,3.3.288l1.405.992.049-.028c4.714-2.792,14.849-2.618,18.6-1.6a13.624,13.624,0,0,1,3.816,1.6Z" transform="translate(-364.153 -317.806)" fill="none" stroke="#1f3951" stroke-linecap="round" stroke-linejoin="round" stroke-width="1"/>
    </g>
    <path id="Path_275" data-name="Path 275" d="M373.915,323.747a4.371,4.371,0,0,0-2.856,5.572" transform="translate(-364.293 -316.788)" fill="none" stroke="#1f3951" stroke-linecap="round" stroke-linejoin="round" stroke-width="1"/>
    <path id="Path_276" data-name="Path 276" d="M365.5,324.5" transform="translate(-364.181 -316.802)" fill="none" stroke="#1f3951" stroke-linecap="round" stroke-linejoin="round" stroke-width="1"/>
    <path id="Path_277" data-name="Path 277" d="M0,0C1.127,1.159,1.127,3.97,0,5.376" transform="matrix(0.719, 0.695, -0.695, 0.719, 47.334, 25.332)" fill="none" stroke="#1f3951" stroke-linecap="round" stroke-linejoin="round" stroke-width="1"/>
  </g>
</svg>
