<svg xmlns="http://www.w3.org/2000/svg" width="23.5" height="23.5" viewBox="0 0 23.5 23.5">
  <g id="Group_114" data-name="Group 114" transform="translate(-1124.25 -899.25)">
    <path id="Path_36" data-name="Path 36" d="M283.06,272.955h-2.212V271.3l-4.978,3.318,4.978,3.318v-1.659h2.212a2.773,2.773,0,0,1,2.765,2.765c0,1.521-1.29,2.395-2.765,2.765a8.139,8.139,0,0,0-1.023.258,1.71,1.71,0,0,0-.76.546,1.431,1.431,0,0,0-.192,1.274,1.818,1.818,0,0,0,1.222,1.135,4.651,4.651,0,0,0,3.11-.362,6.38,6.38,0,0,0,2.377-1.807l.036-.045a6.076,6.076,0,0,0-4.771-9.848Z" transform="translate(857.856 635.495)" fill="#e8f7df"/>
    <g id="Group_14" data-name="Group 14" transform="translate(1125 900)">
      <path id="Path_34" data-name="Path 34" d="M250.743,260v4.425H243V260" transform="translate(-235.871 -260)" fill="none" stroke="#516c40" stroke-linecap="round" stroke-linejoin="round" stroke-width="1.5"/>
      <line id="Line_7" data-name="Line 7" x2="3.063" transform="translate(3.063 19.482)" fill="none" stroke="#516c40" stroke-linecap="round" stroke-linejoin="round" stroke-width="1.5"/>
      <path id="Path_35" data-name="Path 35" d="M252,268.8V260H230v22h15.95a6.068,6.068,0,0,0,6.05-6.05h0a6.068,6.068,0,0,0-6.05-6.05h-2.2v-1.65l-4.95,3.3,4.95,3.3V273.2h2.2a2.758,2.758,0,0,1,2.75,2.75h0a2.758,2.758,0,0,1-2.75,2.75H243.2" transform="translate(-230 -260)" fill="none" stroke="#516c40" stroke-linecap="round" stroke-linejoin="round" stroke-width="1.5"/>
    </g>
  </g>
</svg>
