<svg xmlns="http://www.w3.org/2000/svg" width="143.139" height="76.277" viewBox="0 0 143.139 76.277">
  <g id="Group_93" data-name="Group 93" transform="translate(-603.855 -396.365)">
    <path id="Path_243" data-name="Path 243" d="M744.779,450.262c-56.312,1.18-100.777,6.211-114.517,9.6-13.093,2.749-21.706,7.079-21.706,9.237,0,3.307,22.649-.782,48.293.122,24.293.856,30.705-.853,35.243-3.377,15.73.393,33.555.782,52.685,1.234" fill="#eaeaea"/>
    <path id="Path_244" data-name="Path 244" d="M632.586,437.536c-11.794,2.758-19.923,16.031-20.776,17.287s53.707.977,54.126.559,2.072-17.846,2.072-17.846S644.381,434.778,632.586,437.536Z" fill="#dfeef7"/>
    <path id="Path_245" data-name="Path 245" d="M611.81,454.823s.962,6.036,25.381,5.5c0,0,24.7,3.013,28.745-4.94Z" fill="#95bad3"/>
    <g id="Group_92" data-name="Group 92">
      <path id="Path_246" data-name="Path 246" d="M744.777,410.1c-1.367.235-.852.111-1.813.235-4.734.612-15.943.5-15.943.5a9.557,9.557,0,0,1-.351-1.766c-1.15-11.943-4.739-11.5-10.714-11.886s-25.953-.313-33.488,2.285-10.3,13.216-10.3,13.216-2.623,5.193-3.926,7.418-3.339,2.056-7.23,1.874c-1.531-.073-7.509-.931-11.414-1.673-.125-.241-.491-.962-.679-1.258-1.227-1.935-7.883-2.441-9.365-1.647-.551.295-.726.278-.721.813-.729.009-.686.181-1.406.21-5.426.221-14.889,2.044-14.14,16.394.52,9.957,10.662,10.92,18.487,11.2s17.107-1.321,19.528-5.513l.3-.632s2.683-.709,3.185,0-.673,2.617-1.593,6.035.06,9.59.06,9.59l-1.652.228c-5.055.286-32.281,3.535-32.281,3.535s-7.351-.961-9.554.275a45.053,45.053,0,0,1-4.159,2.266c-.824.308-4.429,1.133-4.429,0s.964-2.069.758-2.784-1.376-1.345-2.612,0a1.971,1.971,0,0,0-2.369.6s-2.472,4.139-2.472,5.065a5.72,5.72,0,0,0,1.031,2.369s-1.031.722-1.031,1.34a1.565,1.565,0,0,0,.413,1.027s-.413.619.412,1.341,5.046,1.039,7.415,1.245,16.891-6.2,16.891-6.2,57.635.521,59.825-1.29c5.935-4.906-2.068-10.214-2.068-10.214s18.731-.656,25.463-.353,23.615-.9,23.615-.9l3.417-.5s1.256-.039,7.131,1.225" fill="#fff"/>
    </g>
    <path id="Path_247" data-name="Path 247" d="M649.717,423.466s6.148.931,7.916,3.353,6.09,9.5,3.669,13.691c-2.282,3.951-9.723,5.542-17.227,5.513-.458,0-3.877.05-4.653,0-7.384-.482-15.663-2.189-16.135-11.2-.749-14.35,9.261-16.593,16.617-16.352,4.818.159,9.722,1.65,13.777,2.554a43.166,43.166,0,0,0,7.331.959c3.891.182,5.926.351,7.23-1.874s3.926-7.418,3.926-7.418,2.765-10.618,10.3-13.216,27.512-2.676,33.488-2.285,9.675-.067,10.714,11.886" fill="#fff" stroke="#1e3a51" stroke-linecap="round" stroke-width="1.25"/>
    <path id="Path_248" data-name="Path 248" d="M661.6,439.878s2.683-.709,3.185,0-.673,2.617-1.593,6.035.06,9.59.06,9.59" fill="none" stroke="#1e3a51" stroke-linecap="round" stroke-width="1.25"/>
    <path id="Path_249" data-name="Path 249" d="M726.67,409.077c.97,11.146,2.275,13.789,2.275,13.789a17.634,17.634,0,0,1,1.531,3.165c.573,1.651,1.579,7.468,1.579,7.468l1.792,5.629a28.207,28.207,0,0,1,.937,4.951c.009,1.495-.475,1.581-1.25,1.4-.848-.2-2.112-6.434-2.112-6.434s.646,4.371.646,6.228.187,3.588-1.085,3.933-1.151-4.609-1.279-5.641a35.963,35.963,0,0,0-1.208-4.139s.128,5.365.383,7.016.6,4.644-.7,4.953c-.812.193-1.049-2.221-1.432-3.94s-1.068-6.144-1.5-7.177-.642-1.777-.961-.745,1.477,9.785.713,10.886-1.993-1.039-2.375-2.689-1.148-8.873-1.4-10.112a13.079,13.079,0,0,0-1.439-3.138s-.692,5.852-1.879,5.944-1.126-1.331-.7-2.428.085-5.123.848-7.319,3.322-7.259,3.322-7.259-3.482-7.174-4.443-11.13-3.022-6.592-2.173-9.044S719,400.13,719,400.13" fill="#fff" stroke="#1e3a51" stroke-linecap="round" stroke-width="1.25"/>
    <path id="Path_250" data-name="Path 250" d="M744.071,409.868c-.669.114-.566.4-1.107.47-4.734.612-15.943.5-15.943.5" fill="#fff" stroke="#1e3a51" stroke-linecap="round" stroke-width="1.25"/>
    <path id="Path_251" data-name="Path 251" d="M661.6,455.731c-5.055.286-32.281,3.535-32.281,3.535s-7.351-.961-9.554.275a45.053,45.053,0,0,1-4.159,2.266c-.824.308-4.429,1.133-4.429,0s.964-2.069.758-2.784-1.376-1.345-2.612,0a1.971,1.971,0,0,0-2.369.6s-2.472,4.139-2.472,5.065a2.972,2.972,0,0,0,.589,1.665,2.761,2.761,0,0,0-.448,1.284c0,.617-.013,1.348-.013,1.348a2.186,2.186,0,0,0,.7,1.78c.823.721,5.046,1.039,7.415,1.245s16.891-6.2,16.891-6.2,57.571.443,59.825-1.29c6.29-4.835-2.068-10.214-2.068-10.214s18.731-.656,25.463-.353,23.615-.9,23.615-.9l3.417-.5a30.146,30.146,0,0,1,4.914.765" fill="none" stroke="#1e3a51" stroke-linecap="round" stroke-width="1.25"/>
    <path id="Path_252" data-name="Path 252" d="M669.909,451.54" fill="none" stroke="#333" stroke-linecap="round" stroke-width="1.177"/>
    <path id="Path_253" data-name="Path 253" d="M609.321,459.023s-2.714,5.039-2.273,5.431,5.672,1.176,5.672,1.176" fill="#fff" stroke="#1e3a51" stroke-linecap="round" stroke-width="1.25"/>
    <line id="Line_38" data-name="Line 38" x2="7.096" y2="1.452" transform="translate(605.296 466.26)" fill="#fff" stroke="#1e3a51" stroke-linecap="round" stroke-width="1.25"/>
    <line id="Line_39" data-name="Line 39" x2="7.671" y2="0.822" transform="translate(604.721 468.779)" fill="#fff" stroke="#1e3a51" stroke-linecap="round" stroke-width="1.25"/>
    <path id="Path_254" data-name="Path 254" d="M638.966,419.951s-1-1.958.4-2.766,7.61-.313,8.778,1.62a4.963,4.963,0,0,1,.906,2.336" fill="#fff" stroke="#1e3a51" stroke-linecap="round" stroke-width="1.25"/>
    <path id="Path_255" data-name="Path 255" d="M716.566,411.009s-10.146.7-15.431-.237a32.524,32.524,0,0,1-9.057-3.02" fill="#fff" stroke="#1e3a51" stroke-linecap="round" stroke-width="1.25"/>
    <path id="Path_256" data-name="Path 256" d="M691.086,458.135s-3.385-6.6-14.055-5.286c-3.372.412-6.853,1.273-10.14,1.974-3.084.659-6.1.963-6.1.963" fill="#fff" stroke="#1e3a51" stroke-linecap="round" stroke-width="1.25"/>
    <path id="Path_257" data-name="Path 257" d="M645.862,420.551s-4.059,0-4.83-1.146c-.484-.721-.127-1.344.485-1.244s1.911,1.479,2.326,1.582c1.789.445,1.559-.308,1.908-.119S646.405,420.6,645.862,420.551Z" fill="#1e3a51"/>
  </g>
</svg>
