<svg xmlns="http://www.w3.org/2000/svg" width="36.009" height="36" viewBox="0 0 36.009 36">
  <g id="Group_123" data-name="Group 123" transform="translate(-1112.571 -2459.404)">
    <path id="Path_311" data-name="Path 311" d="M1130.559,2459.4a18,18,0,1,0,15.6,9A17.994,17.994,0,0,0,1130.559,2459.4Zm16.208,22.338a16.772,16.772,0,0,1-16.176,12.428,16.826,16.826,0,0,1-14.533-8.385,16.768,16.768,0,0,1,14.5-25.148,16.825,16.825,0,0,1,14.533,8.384A16.654,16.654,0,0,1,1146.767,2481.742Z" transform="translate(0)" fill="#1f3951"/>
    <path id="Path_312" data-name="Path 312" d="M1196.108,2545.991h-4.18l2.36-2.362a.618.618,0,0,0-.874-.875l-3.234,3.236h-2.917l-1.015-1.759,1.459-2.529,4.417-1.184a.618.618,0,0,0-.32-1.195l-3.223.864,2.09-3.623a.618.618,0,1,0-1.07-.618l-2.09,3.623-.864-3.226a.618.618,0,1,0-1.194.32l1.184,4.42-1.458,2.528h-2.03l-1.458-2.528,1.184-4.42a.618.618,0,1,0-1.194-.32l-.864,3.226-2.09-3.623a.618.618,0,1,0-1.07.618l2.09,3.623-3.223-.864a.618.618,0,0,0-.32,1.195l4.417,1.184,1.458,2.528-1.015,1.759h-2.915l-3.234-3.236a.618.618,0,1,0-.874.875l2.36,2.362h-4.18a.618.618,0,0,0,0,1.237h4.18l-2.359,2.361a.618.618,0,1,0,.874.874l3.233-3.236h2.917l1.014,1.758-1.458,2.528-4.417,1.185a.618.618,0,0,0,.32,1.195l3.224-.865-2.09,3.623a.618.618,0,1,0,1.07.618l2.09-3.623.864,3.225a.619.619,0,0,0,.6.459.629.629,0,0,0,.16-.022.619.619,0,0,0,.437-.757l-1.184-4.421,1.458-2.528h2.029l1.459,2.529-1.183,4.421a.618.618,0,1,0,1.194.32l.863-3.225,2.09,3.622a.618.618,0,1,0,1.07-.618l-2.09-3.623,3.224.864a.618.618,0,0,0,.32-1.195l-4.417-1.184-1.459-2.528,1.014-1.759h2.917l3.234,3.237a.618.618,0,0,0,.874-.875l-2.36-2.362h4.18a.618.618,0,0,0,0-1.237Zm-10.93,2.376h-2.029l-1.015-1.76,1.015-1.758h2.029l1.015,1.758Z" transform="translate(-53.589 -69.206)" fill="#1f3951"/>
  </g>
</svg>
