<?xml version="1.0" encoding="utf-8"?>
<!-- Generator: Adobe Illustrator 19.0.0, SVG Export Plug-In . SVG Version: 6.00 Build 0)  -->
<svg version="1.1" id="Layer_1" xmlns="http://www.w3.org/2000/svg" xmlns:xlink="http://www.w3.org/1999/xlink" x="0px" y="0px"
	 viewBox="-296 389 18 16" style="enable-background:new -296 389 18 16;" xml:space="preserve">
<path d="M-581.4,788.4L-581.4,788.4L-581.4,788.4l4.4-3.8l-5.8-0.5l-1.4-3.4l-0.8-1.9l-2.2,5.3l-5.7,0.5l4.3,3.8l-1.3,5.6l4.7-2.8
	l0.3-0.2l0,0l0,0l4.1,2.5l0.9,0.5L-581.4,788.4z M-585,789.8l-3.4,2.1l0.9-3.9l-3-2.6l4-0.3l1.6-3.7l1.6,3.7l4,0.3l-3,2.6l0.9,3.9
	L-585,789.8z"/>
</svg>
