<svg xmlns="http://www.w3.org/2000/svg" width="31.763" height="23.424" viewBox="0 0 31.763 23.424">
  <g id="Group_55" data-name="Group 55" transform="translate(0.75 0.75)">
    <path id="Path_185" data-name="Path 185" d="M558.481,363.777a3.322,3.322,0,1,0,3.322-3.323A3.322,3.322,0,0,0,558.481,363.777Z" transform="translate(-537.977 -345.099)" fill="#e8f7df"/>
    <path id="Path_186" data-name="Path 186" d="M583.948,363.777a3.322,3.322,0,1,0,3.322-3.323A3.322,3.322,0,0,0,583.948,363.777Z" transform="translate(-580.361 -345.099)" fill="#e8f7df"/>
    <g id="Group_54" data-name="Group 54">
      <line id="Line_25" data-name="Line 25" x2="2.724" transform="translate(8.57 17.937)" fill="none" stroke="#516c40" stroke-linecap="round" stroke-linejoin="round" stroke-width="1.5"/>
      <path id="Path_187" data-name="Path 187" d="M594.65,345.339h-4.228a1.66,1.66,0,0,0-1.308.638l-3.415,4.368a1.665,1.665,0,0,0-.352,1.023v5.675a.922.922,0,0,0,.922.922h1.072" transform="translate(-585.347 -340.026)" fill="none" stroke="#516c40" stroke-linecap="round" stroke-linejoin="round" stroke-width="1.5"/>
      <path id="Path_188" data-name="Path 188" d="M576.643,337.339h-11.3V355.28h7.376" transform="translate(-554.055 -337.339)" fill="none" stroke="#516c40" stroke-linecap="round" stroke-linejoin="round" stroke-width="1.5"/>
      <line id="Line_26" data-name="Line 26" x2="4.053" transform="translate(25.178 17.937)" fill="none" stroke="#516c40" stroke-linecap="round" stroke-linejoin="round" stroke-width="1.5"/>
      <path id="Path_189" data-name="Path 189" d="M561.347,363.662a3.322,3.322,0,1,0,3.322-3.323A3.322,3.322,0,0,0,561.347,363.662Z" transform="translate(-542.746 -345.06)" fill="none" stroke="#516c40" stroke-linecap="round" stroke-linejoin="round" stroke-width="1.5"/>
      <path id="Path_190" data-name="Path 190" d="M586.347,363.662a3.322,3.322,0,1,0,3.322-3.323A3.322,3.322,0,0,0,586.347,363.662Z" transform="translate(-584.354 -345.06)" fill="none" stroke="#516c40" stroke-linecap="round" stroke-linejoin="round" stroke-width="1.5"/>
      <path id="Path_191" data-name="Path 191" d="M587.347,352h7.813v-2.658" transform="translate(-587.186 -341.367)" fill="none" stroke="#516c40" stroke-linecap="round" stroke-linejoin="round" stroke-width="1.5"/>
      <line id="Line_27" data-name="Line 27" x1="6.421" transform="translate(23.842 11.922)" fill="none" stroke="#516c40" stroke-linecap="round" stroke-linejoin="round" stroke-width="1.5"/>
      <line id="Line_28" data-name="Line 28" x1="8.255" transform="translate(18.339 9.171)" fill="none" stroke="#516c40" stroke-linecap="round" stroke-linejoin="round" stroke-width="1.5"/>
      <line id="Line_29" data-name="Line 29" x1="10.09" transform="translate(18.339 4.585)" fill="none" stroke="#516c40" stroke-linecap="round" stroke-linejoin="round" stroke-width="1.5"/>
      <line id="Line_30" data-name="Line 30" x2="0.917" transform="translate(25.676 0)" fill="none" stroke="#516c40" stroke-linecap="round" stroke-linejoin="round" stroke-width="1.5"/>
    </g>
  </g>
</svg>
