<svg xmlns="http://www.w3.org/2000/svg" width="29.695" height="36" viewBox="0 0 29.695 36">
  <g id="Group_122" data-name="Group 122" transform="translate(-291.225 -1623.24)">
    <path id="Path_303" data-name="Path 303" d="M318.255,1659.24H293.89a2.668,2.668,0,0,1-2.665-2.665V1625.9a2.668,2.668,0,0,1,2.665-2.665h24.365a2.668,2.668,0,0,1,2.665,2.665v30.67A2.668,2.668,0,0,1,318.255,1659.24Zm-24.365-34.873a1.539,1.539,0,0,0-1.537,1.537v30.67a1.539,1.539,0,0,0,1.537,1.537h24.365a1.539,1.539,0,0,0,1.537-1.537V1625.9a1.539,1.539,0,0,0-1.537-1.537Z" fill="#1f3951"/>
    <path id="Path_304" data-name="Path 304" d="M343.458,1691.25H318.982a.564.564,0,0,1,0-1.128h24.476a.564.564,0,0,1,0,1.128Z" transform="translate(-25.147 -61.851)" fill="#1f3951"/>
    <path id="Path_305" data-name="Path 305" d="M320.187,1659.688h-.706a.564.564,0,0,1,0-1.128h.706a.564.564,0,0,1,0,1.128Z" transform="translate(-25.608 -32.663)" fill="#1f3951"/>
    <path id="Path_306" data-name="Path 306" d="M358.111,1659.688H357.4a.564.564,0,0,1,0-1.128h.706a.564.564,0,0,1,0,1.128Z" transform="translate(-60.684 -32.663)" fill="#1f3951"/>
    <path id="Path_307" data-name="Path 307" d="M633.068,1659.688h-.706a.564.564,0,0,1,0-1.128h.706a.564.564,0,0,1,0,1.128Z" transform="translate(-314.979 -32.663)" fill="#1f3951"/>
    <path id="Path_308" data-name="Path 308" d="M344.765,1763.464a11.714,11.714,0,1,1,11.7-11.714A11.72,11.72,0,0,1,344.765,1763.464Zm0-22.3a10.585,10.585,0,1,0,10.573,10.585A10.591,10.591,0,0,0,344.765,1741.165Z" transform="translate(-38.693 -108.043)" fill="#1f3951"/>
    <path id="Path_309" data-name="Path 309" d="M378.4,1794.36a8.978,8.978,0,1,1,8.632-11.4.564.564,0,0,1-.329.674,1.894,1.894,0,0,0,0,3.5.565.565,0,0,1,.329.674A8.994,8.994,0,0,1,378.4,1794.36Zm0-16.827a7.849,7.849,0,1,0,7.412,10.406,3.025,3.025,0,0,1,0-5.113A7.866,7.866,0,0,0,378.4,1777.533Z" transform="translate(-72.325 -141.664)" fill="#1f3951"/>
    <path id="Path_310" data-name="Path 310" d="M424.343,1848.836a.562.562,0,0,1-.4-.165l-1.742-1.742a.564.564,0,0,1,.8-.8l1.343,1.343,6.17-6.17a.564.564,0,0,1,.8.8l-6.569,6.569A.562.562,0,0,1,424.343,1848.836Z" transform="translate(-120.984 -201.526)" fill="#1f3951"/>
  </g>
</svg>
