<?xml version="1.0" encoding="utf-8"?>
<!-- Generator: Adobe Illustrator 19.0.0, SVG Export Plug-In . SVG Version: 6.00 Build 0)  -->
<svg version="1.1" id="Layer_1" xmlns="http://www.w3.org/2000/svg" xmlns:xlink="http://www.w3.org/1999/xlink" x="0px" y="0px"
	 viewBox="-277 400.9 40 40" style="enable-background:new -277 400.9 40 40;" xml:space="preserve">
<path d="M-237.6,440.3c-0.4,0.4-0.9,0.6-1.4,0.6c-0.5,0-1-0.2-1.4-0.6l-16.7-16.7l-16.7,16.7c-0.4,0.4-0.9,0.6-1.4,0.6
	c-1.1,0-2-0.9-2-1.9c0-0.5,0.2-1,0.6-1.4l16.7-16.7l-16.7-16.7c-0.8-0.8-0.8-2,0-2.8c0.8-0.8,2-0.8,2.8,0l16.7,16.7l16.7-16.7
	c0.8-0.8,2-0.8,2.8,0c0.8,0.8,0.8,2,0,2.8l-16.7,16.7l16.7,16.7C-236.8,438.3-236.8,439.6-237.6,440.3z"/>
</svg>
