<?xml version="1.0" encoding="utf-8"?>
<!-- Generator: Adobe Illustrator 19.0.0, SVG Export Plug-In . SVG Version: 6.00 Build 0)  -->
<svg version="1.1" id="Layer_1" xmlns="http://www.w3.org/2000/svg" xmlns:xlink="http://www.w3.org/1999/xlink" x="0px" y="0px"
	 viewBox="-281 404.9 32 32" style="enable-background:new -281 404.9 32 32;" xml:space="preserve">
<path id="star" d="M-249.1,417.4c-0.3-0.8-1-1.4-1.8-1.5l-8.3-1.2l-3.6-7.5c-0.4-0.8-1.2-1.3-2.1-1.3s-1.7,0.5-2.1,1.3l-3.6,7.5
	l-8.3,1.2c-0.9,0.1-1.6,0.7-1.8,1.5c-0.3,0.8-0.1,1.7,0.5,2.3l6.1,6.1l-1.4,8.5c-0.1,0.9,0.2,1.7,0.9,2.2c0.4,0.3,0.9,0.4,1.3,0.4
	c0.4,0,0.8-0.1,1.1-0.3l7.3-3.9l7.3,3.9c0.3,0.2,0.7,0.3,1.1,0.3c0.5,0,0.9-0.1,1.3-0.4c0.7-0.5,1.1-1.4,0.9-2.2l-1.4-8.5l6.1-6.1
	C-249.1,419.1-248.8,418.2-249.1,417.4z M-257.4,424.3c-0.5,0.5-0.7,1.2-0.6,1.9l1.4,8.5l-7.3-3.9c-0.3-0.2-0.7-0.3-1.1-0.3
	c-0.4,0-0.8,0.1-1.1,0.3l-7.3,3.9l1.4-8.5c0.1-0.7-0.1-1.4-0.6-1.9l-6.1-6.1l8.3-1.2c0.8-0.1,1.4-0.6,1.7-1.3l3.6-7.5l3.6,7.5
	c0.3,0.7,1,1.2,1.7,1.3l8.3,1.2L-257.4,424.3z"/>
</svg>
