<?xml version="1.0" encoding="utf-8"?>
<!-- Generator: Adobe Illustrator 19.0.0, SVG Export Plug-In . SVG Version: 6.00 Build 0)  -->
<svg version="1.1" id="Layer_1" xmlns="http://www.w3.org/2000/svg" xmlns:xlink="http://www.w3.org/1999/xlink" x="0px" y="0px"
	 viewBox="-300.7 389 15 15" style="enable-background:new -300.7 389 15 15;" xml:space="preserve">
<path d="M-292.9,389c-3.1,0-6.1,2.1-6.1,5.4c0,2.1,1.2,3.3,1.9,3.3c0.3,0,0.5-0.8,0.5-1.1c0-0.3-0.7-0.9-0.7-2c0-2.2,1.7-4.1,4-4.1
	c0.1,0,0.2,0,0.2,0c2,0,3.6,1.2,3.6,3.3c0,1.6-0.6,4.6-2.7,4.6c-0.7,0-1.4-0.5-1.4-1.3c0,0,0,0,0,0c0-1.1,0.8-2.2,0.8-3.4
	c0-2-2.8-1.6-2.8,0.8c0,0.5,0.1,1,0.3,1.5c-0.6,2-1,4.2-1.3,6.3c0,0.6,0.1,1.1,0.1,1.7c0.1,0.1,0.1,0.1,0.2,0
	c1.5-2.1,1.5-2.5,2.1-5.2c0.5,0.7,1.3,1.1,2.1,1.1c3.2,0,4.6-3.1,4.6-5.9C-287.5,390.9-290,389-292.9,389z"/>
</svg>
