<?xml version="1.0" encoding="utf-8"?>
<!-- Generator: Adobe Illustrator 19.0.0, SVG Export Plug-In . SVG Version: 6.00 Build 0)  -->
<svg version="1.1" id="Layer_1" xmlns="http://www.w3.org/2000/svg" xmlns:xlink="http://www.w3.org/1999/xlink" x="0px" y="0px"
	 viewBox="-298 389.2 15 15" style="enable-background:new -298 389.2 15 15;" xml:space="preserve">
<path id="Icon_awesome-youtube" d="M-283.3,393.1c-0.2-0.6-0.7-1.2-1.3-1.3c-1.9-0.2-3.9-0.3-5.9-0.3c-2,0-3.9,0.1-5.9,0.3
	c-0.6,0.2-1.2,0.7-1.3,1.3c-0.2,1.2-0.3,2.4-0.3,3.6c0,1.2,0.1,2.4,0.3,3.6c0.2,0.6,0.7,1.1,1.3,1.3c1.9,0.2,3.9,0.3,5.9,0.3
	c2,0,3.9-0.1,5.9-0.3c0.6-0.2,1.2-0.7,1.3-1.3c0.2-1.2,0.3-2.4,0.3-3.6C-283,395.5-283.1,394.3-283.3,393.1L-283.3,393.1z M-292,399
	v-4.5l3.9,2.2L-292,399z"/>
</svg>
