<?xml version="1.0" encoding="utf-8"?>
<!-- Generator: Adobe Illustrator 19.0.0, SVG Export Plug-In . SVG Version: 6.00 Build 0)  -->
<svg version="1.1" id="Layer_1" xmlns="http://www.w3.org/2000/svg" xmlns:xlink="http://www.w3.org/1999/xlink" x="0px" y="0px"
	 viewBox="-298 389.8 15 15" style="enable-background:new -298 389.8 15 15;" xml:space="preserve">
<path id="Icon_awesome-google-plus-g" d="M-288.9,396.6c0.1,0.3,0.1,0.5,0.1,0.8c0.1,2.4-1.7,4.4-4.1,4.6c-0.1,0-0.3,0-0.4,0
	c-2.6,0-4.7-2.2-4.6-4.8c0-2.5,2.1-4.6,4.6-4.6c1.2,0,2.3,0.4,3.1,1.2l-1.3,1.2c-0.5-0.5-1.2-0.7-1.9-0.7c-1.6,0-3,1.3-3,3
	c0,1.6,1.3,3,3,3c1.3,0.1,2.4-0.8,2.7-2h-2.7v-1.6H-288.9L-288.9,396.6z M-284.4,396.8v-1.4h-1.4v1.4h-1.4v1.4h1.4v1.4h1.4v-1.4h1.4
	v-1.4H-284.4L-284.4,396.8z"/>
</svg>
