<?xml version="1.0" encoding="utf-8"?>
<!-- Generator: Adobe Illustrator 19.0.0, SVG Export Plug-In . SVG Version: 6.00 Build 0)  -->
<svg version="1.1" id="Layer_1" xmlns="http://www.w3.org/2000/svg" xmlns:xlink="http://www.w3.org/1999/xlink" x="0px" y="0px"
	 viewBox="-297 389 15 15" style="enable-background:new -297 389 15 15;" xml:space="preserve">
<path id="Icon_awesome-instagram" d="M-289.5,392.7c-2.1,0-3.8,1.7-3.8,3.8s1.7,3.8,3.8,3.8s3.8-1.7,3.8-3.8l0,0
	C-285.6,394.4-287.4,392.7-289.5,392.7C-289.5,392.7-289.5,392.7-289.5,392.7z M-289.5,399c-1.4,0-2.5-1.1-2.5-2.5s1.1-2.5,2.5-2.5
	s2.5,1.1,2.5,2.5S-288.1,399-289.5,399z M-284.6,392.5c0,0.5-0.4,0.9-0.9,0.9c-0.5,0-0.9-0.4-0.9-0.9s0.4-0.9,0.9-0.9l0,0
	C-285,391.6-284.6,392-284.6,392.5C-284.6,392.5-284.6,392.5-284.6,392.5L-284.6,392.5z M-282,393.4c0-1.2-0.4-2.3-1.2-3.1
	c-0.8-0.8-2-1.2-3.1-1.2c-1.2-0.1-5-0.1-6.2,0c-1.2,0-2.3,0.4-3.1,1.2c-0.8,0.8-1.2,2-1.2,3.1c-0.1,1.2-0.1,5,0,6.2
	c0,1.2,0.4,2.3,1.2,3.1c0.8,0.8,2,1.2,3.1,1.2c1.2,0.1,5,0.1,6.2,0c1.2,0,2.3-0.4,3.1-1.2c0.8-0.8,1.2-2,1.2-3.1
	C-282,398.4-282,394.6-282,393.4L-282,393.4z M-283.6,400.9c-0.3,0.7-0.8,1.2-1.4,1.4c-1.5,0.3-2.9,0.4-4.4,0.3
	c-1.5,0.1-3,0-4.4-0.3c-0.7-0.3-1.2-0.8-1.4-1.4c-0.3-1.5-0.4-2.9-0.3-4.4c-0.1-1.5,0-3,0.3-4.4c0.3-0.7,0.8-1.2,1.4-1.4
	c1.5-0.3,2.9-0.4,4.4-0.3c1.5-0.1,3,0,4.4,0.3c0.7,0.3,1.2,0.8,1.4,1.4c0.3,1.5,0.4,2.9,0.3,4.4C-283.2,398-283.4,399.5-283.6,400.9
	L-283.6,400.9z"/>
</svg>
