<svg xmlns="http://www.w3.org/2000/svg" width="31.148" height="25.799" viewBox="0 0 31.148 25.799">
  <g id="Cart_Icon" data-name="Cart Icon" transform="translate(0.125 0.125)">
    <path id="Path_20" data-name="Path 20" d="M1578.916,2137.484h-18.044a.346.346,0,0,0-.268.122.294.294,0,0,0-.058.271l2.111,7.287a2.741,2.741,0,0,0,2.566,1.822h9.344a2.74,2.74,0,0,0,2.565-1.822l2.111-7.287a.294.294,0,0,0-.058-.271A.347.347,0,0,0,1578.916,2137.484Z" transform="translate(-1550.779 -2132.57)" fill="#dfeef7"/>
    <path id="Path_16" data-name="Path 16" d="M1296.357,2224.424l4.114,15.4a3.2,3.2,0,0,0,2.971,2.287h12.387a.392.392,0,0,0,0-.784h-12.387a2.457,2.457,0,0,1-2.216-1.706l-4.114-15.4a3.205,3.205,0,0,0-2.971-2.288h-3.871a.393.393,0,0,0,0,.785h3.871A2.457,2.457,0,0,1,1296.357,2224.424Z" transform="translate(-1289.879 -2221.934)" fill="#1f3951" stroke="#1f3951" stroke-width="0.25"/>
    <path id="Path_17" data-name="Path 17" d="M1468,2296.022h-20.964a.392.392,0,0,0-.379.494l2.452,9.152a3.214,3.214,0,0,0,2.981,2.287h10.856a3.214,3.214,0,0,0,2.981-2.287l2.452-9.152a.392.392,0,0,0-.379-.494Zm-2.291,7.426h-3.232l.327-2.929h3.69Zm-4.021,0h-3.777v-2.929h4.1Zm-3.777,3.722v-2.937h3.689l-.328,2.937Zm-4.147,0-.327-2.937h3.69v2.937Zm-5.222-6.652h3.69l.327,2.929h-3.232Zm4.48,0h4.1v2.929h-3.777Zm-.088-.785-.326-2.927h4.518v2.927Zm4.977,0v-2.927h4.518l-.326,2.927Zm-6.093-2.927.327,2.927h-3.812l-.784-2.927Zm-1.95,8.658-.33-1.232h3.109l.328,2.937h-.884A2.463,2.463,0,0,1,1449.863,2305.465Zm15.3,0a2.464,2.464,0,0,1-2.223,1.705h-.884l.328-2.937h3.109Zm1.536-5.732h-3.812l.326-2.927h4.27Z" transform="translate(-1437.492 -2291.682)" fill="#1f3951" stroke="#1f3951" stroke-width="0.25"/>
    <path id="Path_18" data-name="Path 18" d="M1472.976,2581.9a2.28,2.28,0,1,0-2.281,2.281A2.283,2.283,0,0,0,1472.976,2581.9Zm-3.776,0a1.5,1.5,0,1,1,1.5,1.5A1.5,1.5,0,0,1,1469.2,2581.9Z" transform="translate(-1457.938 -2558.634)" fill="#1f3951" stroke="#1f3951" stroke-width="0.25"/>
    <path id="Path_19" data-name="Path 19" d="M1679.164,2581.9a2.28,2.28,0,1,0-2.28,2.281A2.283,2.283,0,0,0,1679.164,2581.9Zm-3.776,0a1.5,1.5,0,1,1,1.5,1.5A1.5,1.5,0,0,1,1675.389,2581.9Z" transform="translate(-1652.038 -2558.634)" fill="#1f3951" stroke="#1f3951" stroke-width="0.25"/>
  </g>
</svg>
