<svg xmlns="http://www.w3.org/2000/svg" width="39.5" height="39.5" viewBox="0 0 39.5 39.5">
  <g id="Group_15" data-name="Group 15" transform="translate(-595.25 -788.25)">
    <circle id="Ellipse_5" data-name="Ellipse 5" cx="9.5" cy="9.5" r="9.5" transform="translate(612.027 792)" fill="#dfeef7"/>
    <g id="Group_13" data-name="Group 13" transform="translate(596 789)">
      <g id="Group_11" data-name="Group 11" transform="translate(0 15.712)">
        <line id="Line_2" data-name="Line 2" x1="3.406" transform="translate(21.483 18.161)" fill="none" stroke="#1f3951" stroke-linecap="round" stroke-linejoin="round" stroke-width="1.5"/>
        <path id="Path_27" data-name="Path 27" d="M76,442h3.795a2.145,2.145,0,0,1,1.691.825l3.139,4.015a2.146,2.146,0,0,1,.456,1.322v5.854a1.191,1.191,0,0,1-1.191,1.191h-.46" transform="translate(-52.033 -437.047)" fill="none" stroke="#1f3951" stroke-linecap="round" stroke-linejoin="round" stroke-width="1.5"/>
        <line id="Line_3" data-name="Line 3" x1="4.231" transform="translate(3.302 18.161)" fill="none" stroke="#1f3951" stroke-linecap="round" stroke-linejoin="round" stroke-width="1.5"/>
        <path id="Path_28" data-name="Path 28" d="M62,436h7.65a1.431,1.431,0,0,1,1.431,1.431v16.73H63.651" transform="translate(-49.603 -436)" fill="none" stroke="#1f3951" stroke-linecap="round" stroke-linejoin="round" stroke-width="1.5"/>
        <path id="Path_29" data-name="Path 29" d="M62.6,458.3a3.3,3.3,0,1,1-3.3-3.3A3.3,3.3,0,0,1,62.6,458.3Z" transform="translate(-48.563 -439.316)" fill="none" stroke="#1f3951" stroke-linecap="round" stroke-linejoin="round" stroke-width="1.5"/>
        <path id="Path_30" data-name="Path 30" d="M83.6,458.3a3.3,3.3,0,1,1-3.3-3.3A3.3,3.3,0,0,1,83.6,458.3Z" transform="translate(-52.208 -439.316)" fill="none" stroke="#1f3951" stroke-linecap="round" stroke-linejoin="round" stroke-width="1.5"/>
        <line id="Line_4" data-name="Line 4" x2="7" transform="translate(0 12.316)" fill="none" stroke="#1f3951" stroke-linecap="round" stroke-linejoin="round" stroke-width="1.5"/>
        <line id="Line_5" data-name="Line 5" x2="7" transform="translate(3 8.316)" fill="none" stroke="#1f3951" stroke-linecap="round" stroke-linejoin="round" stroke-width="1.5"/>
        <line id="Line_6" data-name="Line 6" x2="7" transform="translate(8.008 4.316)" fill="none" stroke="#1f3951" stroke-linecap="round" stroke-linejoin="round" stroke-width="1.5"/>
        <path id="Path_31" data-name="Path 31" d="M85.255,448.476H77V446" transform="translate(-52.208 -437.745)" fill="none" stroke="#1f3951" stroke-linecap="round" stroke-linejoin="round" stroke-width="1.5"/>
      </g>
      <g id="Group_12" data-name="Group 12" transform="translate(13.235)">
        <path id="Path_32" data-name="Path 32" d="M63,429.382a12.382,12.382,0,1,1,21.041,8.851" transform="translate(-63 -417)" fill="none" stroke="#1f3951" stroke-linecap="round" stroke-linejoin="round" stroke-width="1.5"/>
        <path id="Path_33" data-name="Path 33" d="M78,422v8.255h6.778" transform="translate(-65.618 -417.873)" fill="none" stroke="#1f3951" stroke-linecap="round" stroke-linejoin="round" stroke-width="1.5"/>
      </g>
    </g>
  </g>
</svg>
