<svg xmlns="http://www.w3.org/2000/svg" width="52" height="52" viewBox="0 0 52 52">
  <g id="free_exchange_and_returns_icon" data-name="free exchange and returns icon" transform="translate(-1225 -4733)">
    <path id="Path_86" data-name="Path 86" d="M292.252,275.076h-5.041V271.3l-11.341,7.561,11.341,7.561v-3.78h5.041a6.319,6.319,0,0,1,6.3,6.3c0,3.465-2.94,5.456-6.3,6.3a18.559,18.559,0,0,0-2.33.589,3.9,3.9,0,0,0-1.731,1.244,3.261,3.261,0,0,0-.439,2.9,4.143,4.143,0,0,0,2.785,2.587,10.6,10.6,0,0,0,7.087-.825,14.536,14.536,0,0,0,5.415-4.118l.083-.1a13.843,13.843,0,0,0-10.87-22.438Z" transform="translate(969.887 4478.05)" fill="#dfeef7"/>
    <g id="Group_38" data-name="Group 38" transform="translate(1226 4734)">
      <path id="Path_34" data-name="Path 34" d="M260.642,260v10.081H243V260" transform="translate(-226.821 -260)" fill="#fd9" stroke="#1f3951" stroke-linecap="round" stroke-linejoin="round" stroke-width="2"/>
      <line id="Line_7" data-name="Line 7" x2="6.98" transform="translate(6.98 44.264)" fill="none" stroke="#1f3951" stroke-linecap="round" stroke-linejoin="round" stroke-width="2"/>
      <path id="Path_35" data-name="Path 35" d="M280,280V260H230v50h36.25A13.79,13.79,0,0,0,280,296.25h0a13.79,13.79,0,0,0-13.75-13.75h-5v-3.75L250,286.25l11.25,7.5V290h5a6.268,6.268,0,0,1,6.25,6.25h0a6.268,6.268,0,0,1-6.25,6.25H260" transform="translate(-230 -260)" fill="none" stroke="#1f3951" stroke-linecap="round" stroke-linejoin="round" stroke-width="2"/>
    </g>
  </g>
</svg>
