<svg xmlns="http://www.w3.org/2000/svg" width="149.887" height="50.625" viewBox="0 0 149.887 50.625">
  <g id="Group_94" data-name="Group 94" transform="translate(-616.302 -672.362)">
    <path id="Path_258" data-name="Path 258" d="M765.372,702.207c-71.317-1.622-92.12-.99-107.391-.132-20.751,1.165-27.35,7.752-27.465,9.9-.172,3.2,60.218,9.676,134.957,11.014Z" fill="#eaeaea"/>
    <path id="Path_259" data-name="Path 259" d="M765.361,681.034c-11.13-.724-27.335-1.365-31.682-1.546-6.264-.261-11.879-1.565-23.105-1.174s-28.707,11.611-28.707,11.611l.846,22.042c6.021,2.624,8.028,2.78,16.519,2.932s52.935-2.687,63-1.823a10.991,10.991,0,0,1,3.2.833" fill="#fff"/>
    <path id="Path_260" data-name="Path 260" d="M636.7,695.7c-11.576,2.991-19.555,17.386-20.392,18.748s52.716,1.06,53.127.607,2.034-19.355,2.034-19.355S648.281,692.711,636.7,695.7Z" fill="#dfeef7"/>
    <path id="Path_261" data-name="Path 261" d="M616.312,714.45s.944,6.547,24.912,5.964c0,0,24.242,3.268,28.215-5.357Z" fill="#95bad3"/>
    <path id="Path_262" data-name="Path 262" d="M710.574,678.314c-11.225.39-28.707,11.611-28.707,11.611s-8.188-1.338-8.841-1.55.032-3.368.032-3.368c.749-2.265,1.422-4.448-.1-5.459-.884-.586-4.336.131-4.945-.522s-.986-1.287-1.559-1.3a1.314,1.314,0,0,0-.875.256,1.836,1.836,0,0,0-1.423-.883,6.115,6.115,0,0,0-2.365.24s-1.145-2.335-2.049-2.6-6.193,3.5-7.549,3.255c-.47-.082-.7-.41-1.334-.469,0,0-7.933,0-12.457,4.25-9.653,9.071-4.091,33.267,15.9,27.22a23.468,23.468,0,0,0,8.648-5.073c2.216-1.84,4.26-1.682,7.176-.726.945.309,3.809,3.219,6.479,5.246a24.027,24.027,0,0,0,4.595,2.737" fill="#fff"/>
    <path id="Path_263" data-name="Path 263" d="M682.637,689.7" fill="#fedb9d"/>
    <path id="Path_264" data-name="Path 264" d="M765.467,681.372c-11.14-.7-27.421-1.7-31.788-1.884-6.264-.261-11.879-1.565-23.105-1.174s-28.707,11.611-28.707,11.611-8.188-1.338-8.841-1.55.032-3.368.032-3.368c.749-2.265,1.422-4.448-.1-5.459-.884-.586-4.336.131-4.945-.522s-.986-1.287-1.559-1.3a1.314,1.314,0,0,0-.875.256,1.836,1.836,0,0,0-1.423-.883,6.115,6.115,0,0,0-2.365.24s-1.145-2.335-2.049-2.6-6.193,3.5-7.549,3.255c-.47-.082-.7-.41-1.334-.469,0,0-7.933,0-12.457,4.25-9.653,9.071-4.091,33.267,15.9,27.22a23.468,23.468,0,0,0,8.648-5.073c2.216-1.84,4.26-1.682,7.176-.726.945.309,3.809,3.219,6.479,5.246a21.712,21.712,0,0,0,4.9,2.737" fill="#fff" stroke="#1e3a51" stroke-linecap="round" stroke-width="1.25"/>
    <path id="Path_265" data-name="Path 265" d="M742.737,713.566c7.12-.243,15.2-.49,18.356-.49a11.685,11.685,0,0,1,4.287.942" fill="none" stroke="#1e3a51" stroke-linecap="round" stroke-width="1.25"/>
    <path id="Path_266" data-name="Path 266" d="M698.933,694.833s4.062,3.286,6.091,3.966,8.349.452,13.764,1.129a71.8,71.8,0,0,1,9.8,1.939" fill="none" stroke="#1e3a51" stroke-linecap="round" stroke-width="1.25"/>
    <path id="Path_267" data-name="Path 267" d="M743.383,700.381c-.9-9.93-1.294-15.568-.884-16.927.745-2.469,1.176-7.481.095-8.007,0,0-.678-1.43-1.918-1.279s-1.129.829-2.031.829-1.133-1.6-1.923-1.484c-.5.07-1.043.387-1.744.564a6.326,6.326,0,0,0-2.106-1.09c-.282,0-.634.354-.955.777a4.255,4.255,0,0,0-2.467-.256c-.886.276-1.766,3.148-2.1,3.148s-1.581.226-1.806,1.241,5.432,2.627,5.657,3.3,1.354,7.9.565,10.831a64.843,64.843,0,0,1-2.708,7.671c-.79,1.918-.677,5.3.564,8.236L679.2,704.79s1.34,10.487,14.156,12.775,47.107,2.338,47.835,1.044S744.285,710.308,743.383,700.381Z" fill="#fff"/>
    <path id="Path_268" data-name="Path 268" d="M679.355,702.954a10.6,10.6,0,0,0,.593,5.694c1.648,3.715,5.983,7.591,13.411,8.917,12.818,2.288,47.107,2.338,47.835,1.044s3.091-8.3,2.189-18.228-1.294-15.568-.884-16.927a16.14,16.14,0,0,0,.095-8.007s-.678-1.43-1.918-1.279-1.726.752-1.966.711-.512-1.246-1.988-1.366c-.5-.042-1.043.387-1.744.564a6.326,6.326,0,0,0-2.106-1.09c-.279,0-.625.344-.942.762a3.566,3.566,0,0,0-2.48-.241c-.832.409-1.766,3.148-2.1,3.148s-1.581.226-1.806,1.241,5.432,2.627,5.657,3.3,1.354,7.9.565,10.831a64.843,64.843,0,0,1-2.708,7.671c-.79,1.918-.677,5.3.564,8.236" fill="#fff" stroke="#1e3a51" stroke-linecap="round" stroke-width="1.25"/>
    <path id="Path_269" data-name="Path 269" d="M765.38,714.018" fill="#fff" stroke="#1e3a51" stroke-linecap="round" stroke-width="1.277"/>
  </g>
</svg>
