<svg xmlns="http://www.w3.org/2000/svg" width="151.043" height="56.263" viewBox="0 0 151.043 56.263">
  <g id="Group_87" data-name="Group 87" transform="translate(-226.462 -233.366)" opacity="0.4">
    <path id="Path_231" data-name="Path 231" d="M375.653,260.351c-53.442,2.106-92.2,7.637-92.2,10.113,0,4.869,38.994,3.318,91.994,4.536Z" fill="#eaeaea"/>
    <path id="Path_232" data-name="Path 232" d="M294.217,272.95l1.25-12.881-35.345-14.131a124.794,124.794,0,0,0-11,14.153,22.04,22.04,0,0,0-3.316,9.418c7.126.13,31.658.674,42.33,2.12A38.23,38.23,0,0,1,294.217,272.95Z" fill="#f8f6f6"/>
    <path id="Path_233" data-name="Path 233" d="M252.651,276.136h41.256l.31-3.186a38.23,38.23,0,0,0-6.085-1.321c-10.672-1.446-35.2-1.99-42.33-2.12a1.339,1.339,0,0,0-.02.447C246.774,272.822,252.651,276.136,252.651,276.136Z" fill="#909da8"/>
    <path id="Path_234" data-name="Path 234" d="M375.643,268.779c-8.877-.038-19.454-.049-23.889.085-8.226.25-22.809,2.368-29.04,1.746s-17.2-3.989-17.2-3.989l-3.489-25.052s15.828-7.852,29.165-6.356,35.646,6.48,43.373,4.736c.711-.161,1.431-.36,2.16-.588" fill="#fff" stroke="#646f78" stroke-linecap="round" stroke-linejoin="round" stroke-width="1.25"/>
    <path id="Path_235" data-name="Path 235" d="M302.024,242.433c-6.557,1.318-11.83-1.226-14.859-1.9-3.8-.846-8.485-3.417-13-3.566-6.89-.226-16.267,1.875-15.566,15.317.441,8.442,8.2,10.042,15.114,10.493.727.047,3.931,0,4.36,0,7.03.028,14-1.463,16.138-5.165a4.605,4.605,0,0,0,.364-.8l7.448.336Z" fill="#fff"/>
    <path id="Path_236" data-name="Path 236" d="M283.358,241.645s5.76.872,7.417,3.14,5.705,8.9,3.437,12.825c-2.138,3.7-9.108,5.193-16.138,5.165-.429,0-3.633.047-4.36,0-6.917-.451-14.673-2.051-15.114-10.493-.7-13.442,8.676-15.543,15.566-15.317,4.514.149,9.2,2.72,13,3.566,3.029.676,8.3,3.22,14.859,1.9" fill="none" stroke="#646f78" stroke-linecap="round" stroke-linejoin="round" stroke-width="1.25"/>
    <path id="Path_237" data-name="Path 237" d="M273.239,238.1s-.834-1.882.511-2.568,7.133.093,8.129,1.959a4.653,4.653,0,0,1,.729,2.231" fill="#fff" stroke="#646f78" stroke-linecap="round" stroke-linejoin="round" stroke-width="1.25"/>
    <path id="Path_238" data-name="Path 238" d="M279.748,238.914s-3.8,0-4.525-1.074c-.454-.676-.118-1.259.454-1.166s1.79,1.386,2.179,1.483c1.676.416,1.461-.289,1.787-.112S280.256,238.962,279.748,238.914Z" fill="#646f78"/>
    <g id="Group_86" data-name="Group 86">
      <path id="Path_239" data-name="Path 239" d="M314.82,251.029a72.01,72.01,0,0,1-5.013,11.369c-2.98,5.214-10.487,18.618-13.467,20.107a3.22,3.22,0,0,1-1.406.214c-5.438,1.108-37.1-1.689-37.1-1.689s-8.583-.356-9.481-.021-6.3,1.646-8.584,2.088-4.274.277-5.66,1.2a9.718,9.718,0,0,0-2.076,1.795s.689,2.389.041,2.836-1.542-1.663-1.542-1.663-1.578.321-2.108-.473a8.88,8.88,0,0,1-.728-2.888,4.395,4.395,0,0,1-.6-1.939,10.372,10.372,0,0,1,.348-2.349l.851-.847a9.1,9.1,0,0,1,.345-2.057c.2-.252,4.895-4.115,5.962-4.395s12.732.269,12.732.269,7.838,0,12.425-.254,21.458-2.056,24.97-2.2a61.288,61.288,0,0,1,6.163.124l.949-.286a54.767,54.767,0,0,1,2.716-13.083c2.448-7.448,1.338-11.727,6.962-17.969,7.462-8.284,21.478-3.611,21.478-3.611a54.581,54.581,0,0,1,5.783-.263" fill="#fff" stroke="#646f78" stroke-linecap="round" stroke-linejoin="round" stroke-width="1.25"/>
      <path id="Path_240" data-name="Path 240" d="M235.484,279.614s-1.6.136-1.86.694-3.182,3.04-3.256,3.76a29.337,29.337,0,0,0,.161,3.2" fill="none" stroke="#646f78" stroke-linecap="round" stroke-linejoin="round" stroke-width="1.25"/>
      <path id="Path_241" data-name="Path 241" d="M234.059,277.143s-1.968.31-2.421,1.084a41.021,41.021,0,0,0-3.3,3.179,3.53,3.53,0,0,0-.644,2.5" fill="none" stroke="#646f78" stroke-linecap="round" stroke-linejoin="round" stroke-width="1.25"/>
      <path id="Path_242" data-name="Path 242" d="M232.746,274.662s-.98.369-1.19.834a40.425,40.425,0,0,1-3.269,3.275" fill="none" stroke="#646f78" stroke-linecap="round" stroke-linejoin="round" stroke-width="1.25"/>
    </g>
  </g>
</svg>
