<svg id="Group_44" data-name="Group 44" xmlns="http://www.w3.org/2000/svg" width="165.403" height="46" viewBox="0 0 165.403 46">
  <g id="Group_3" data-name="Group 3" transform="translate(0 19.82)">
    <g id="Group_2" data-name="Group 2" transform="translate(0 0)">
      <path id="Path_1" data-name="Path 1" d="M80.86,206.529a8.4,8.4,0,0,1,.109-.873,4.075,4.075,0,0,1,.182-.692,5.411,5.411,0,0,0,1.655-.491,1.8,1.8,0,0,0,.819-.982,11.265,11.265,0,0,0,.473-1.874l2.656-15.354a4.624,4.624,0,0,0,.054-1.655,1.334,1.334,0,0,0-.655-.91,4.051,4.051,0,0,0-1.583-.418,4.219,4.219,0,0,1-.073-1.564q.69.037,1.637.073t1.892.036h1.6q.727,0,2.183-.054t2.8-.055q3.965,0,5.676,2.165t.982,5.985a8.637,8.637,0,0,1-1.728,3.929,8.86,8.86,0,0,1-3.329,2.583,10.6,10.6,0,0,1-4.439.909,7.587,7.587,0,0,1-1.382-.109,3.324,3.324,0,0,1-.982-.327,2.282,2.282,0,0,1,.073-.764,2.181,2.181,0,0,1,.255-.692,6.221,6.221,0,0,0,.837.182,6.63,6.63,0,0,0,1.019.073,5.8,5.8,0,0,0,4.057-1.437,7.459,7.459,0,0,0,2.128-4.238q.618-3.165-.528-4.911T92.9,183.317a11.981,11.981,0,0,0-1.31.073,9.712,9.712,0,0,0-1.455.291l.582-.909-3.165,18.482a8.929,8.929,0,0,0-.2,2.11,1.214,1.214,0,0,0,.691,1.055,7.285,7.285,0,0,0,2.092.546,3.034,3.034,0,0,1,.127.709,7.2,7.2,0,0,1-.018.855q-1.347-.074-2.365-.091t-2.256-.018q-1.347,0-2.438.018T80.86,206.529Z" transform="translate(-80.86 -180.588)" fill="#446c90"/>
      <path id="Path_2" data-name="Path 2" d="M138.355,205.668a2.264,2.264,0,0,1-1.783-.655,2.8,2.8,0,0,1-.619-1.837,9.324,9.324,0,0,1,.4-2.747l1.492-5.239a17.663,17.663,0,0,0,.637-2.693q.09-.836-.4-1.055a4.583,4.583,0,0,0-1.692-.218,3.018,3.018,0,0,1,.018-.746,2.184,2.184,0,0,1,.2-.636,8.3,8.3,0,0,0,1.4-.327,16.379,16.379,0,0,0,1.583-.582,11.348,11.348,0,0,0,1.2-.582,2.14,2.14,0,0,1,1.364,1.583,7.8,7.8,0,0,1-.382,3.365l-2,7.022a6.893,6.893,0,0,0-.418,2.292.552.552,0,0,0,.6.509,1.924,1.924,0,0,0,.855-.255,4.341,4.341,0,0,0,1.037-.8,1.3,1.3,0,0,1,.455.473,1.719,1.719,0,0,1,.2.691,10.85,10.85,0,0,1-2.092,1.783A3.831,3.831,0,0,1,138.355,205.668Zm3.165-21.32a1.466,1.466,0,0,1-1.291-.6,1.964,1.964,0,0,1-.237-1.547,2.977,2.977,0,0,1,.873-1.619,2.146,2.146,0,0,1,1.492-.6,1.554,1.554,0,0,1,1.346.6,1.964,1.964,0,0,1,.218,1.619,2.736,2.736,0,0,1-.837,1.547A2.236,2.236,0,0,1,141.52,184.348Z" transform="translate(-115.143 -179.509)" fill="#446c90"/>
      <path id="Path_3" data-name="Path 3" d="M162.413,204.889a2.318,2.318,0,0,1-1.892-.746,3.243,3.243,0,0,1-.582-2.2q0-.546.054-1.146t.219-1.637q.163-1.037.491-2.765t.873-4.457q.546-2.728,1.346-6.8a14.367,14.367,0,0,0,.327-2.419q0-.745-.509-.928a5.47,5.47,0,0,0-1.674-.182,7.6,7.6,0,0,1,.036-.764,1.54,1.54,0,0,1,.182-.618,14.227,14.227,0,0,0,1.546-.309,18.12,18.12,0,0,0,1.91-.582,14.761,14.761,0,0,0,1.455-.6,1.1,1.1,0,0,1,.764.764,3.368,3.368,0,0,1,0,1.565q-.728,4.111-1.473,7.949t-1.474,7.4q-.509,2.583-.618,3.857a4.019,4.019,0,0,0,.073,1.674.583.583,0,0,0,.545.4,1.808,1.808,0,0,0,.819-.236,4.506,4.506,0,0,0,1.037-.818,1.913,1.913,0,0,1,.437.528,2.484,2.484,0,0,1,.218.564,9.8,9.8,0,0,1-1.983,1.765A3.845,3.845,0,0,1,162.413,204.889Z" transform="translate(-130.061 -178.73)" fill="#446c90"/>
      <path id="Path_4" data-name="Path 4" d="M186.5,204.889a2.318,2.318,0,0,1-1.892-.746,3.243,3.243,0,0,1-.582-2.2q0-.546.054-1.146t.219-1.637q.163-1.037.491-2.765t.873-4.457q.546-2.728,1.346-6.8a14.378,14.378,0,0,0,.327-2.419q0-.745-.51-.928a5.47,5.47,0,0,0-1.674-.182,7.6,7.6,0,0,1,.036-.764,1.54,1.54,0,0,1,.182-.618,14.227,14.227,0,0,0,1.546-.309,18.119,18.119,0,0,0,1.91-.582,14.76,14.76,0,0,0,1.455-.6,1.1,1.1,0,0,1,.764.764,3.358,3.358,0,0,1,0,1.565q-.728,4.111-1.473,7.949t-1.474,7.4q-.509,2.583-.618,3.857a4.018,4.018,0,0,0,.073,1.674.583.583,0,0,0,.545.4,1.808,1.808,0,0,0,.819-.236,4.506,4.506,0,0,0,1.037-.818,1.906,1.906,0,0,1,.437.528,2.484,2.484,0,0,1,.218.564,9.8,9.8,0,0,1-1.983,1.765A3.845,3.845,0,0,1,186.5,204.889Z" transform="translate(-145.045 -178.73)" fill="#446c90"/>
      <path id="Path_5" data-name="Path 5" d="M212.656,219.456a5.4,5.4,0,0,1-3.565-1.146,5.6,5.6,0,0,1-1.856-3.111,10.5,10.5,0,0,1,0-4.439,12.463,12.463,0,0,1,1.783-4.512,9.515,9.515,0,0,1,3.129-3.02,7.759,7.759,0,0,1,4-1.092,5.513,5.513,0,0,1,3.511,1.073,5.443,5.443,0,0,1,1.873,2.947,9.811,9.811,0,0,1,.073,4.311,12.4,12.4,0,0,1-1.728,4.621,10.047,10.047,0,0,1-3.147,3.2A7.51,7.51,0,0,1,212.656,219.456Zm.473-1.746a2.961,2.961,0,0,0,2.055-.91,8.271,8.271,0,0,0,1.71-2.456,13.9,13.9,0,0,0,1.11-3.511,9.98,9.98,0,0,0-.073-4.984,2.409,2.409,0,0,0-2.328-1.965,3.634,3.634,0,0,0-2.874,1.8,11.9,11.9,0,0,0-1.892,4.712,13.84,13.84,0,0,0-.255,3.766,5.357,5.357,0,0,0,.8,2.6A2.026,2.026,0,0,0,213.129,217.709Z" transform="translate(-159.342 -193.297)" fill="#446c90"/>
      <path id="Path_6" data-name="Path 6" d="M254.6,202.138a2.217,2.217,0,0,1,1.037.618,2.915,2.915,0,0,1,.546,1.183q.2.783.455,2.237.363,1.82.655,3.766t.491,3.711q.2,1.765.273,3.074h-.436a21.543,21.543,0,0,0,3-4.2,10.179,10.179,0,0,0,1.164-4.166,16.282,16.282,0,0,0-.637-5.057,3.958,3.958,0,0,0,2-1.164,1.884,1.884,0,0,1,.891.455,2.686,2.686,0,0,1,.546,1.11q.236.8.564,2.438.4,1.783.746,3.747t.618,3.729q.273,1.766.346,3.074h-.436a25.265,25.265,0,0,0,3.438-5.13,9.085,9.085,0,0,0,1.037-3.6,3.221,3.221,0,0,0-.564-2.092,2.61,2.61,0,0,0-1.765-.818,2.174,2.174,0,0,1-.2-.637,2.758,2.758,0,0,1-.018-.709q.655-.181,1.365-.455t1.328-.582a6.325,6.325,0,0,0,.909-.528,3.113,3.113,0,0,1,1.6,1.255,4.624,4.624,0,0,1,.582,2.529,9.121,9.121,0,0,1-.673,3.165,19.8,19.8,0,0,1-2.474,4.293,56.791,56.791,0,0,1-5.257,6.076,3.426,3.426,0,0,1-.928-.054,3.257,3.257,0,0,1-.818-.273q-.146-1.928-.346-3.675T263.2,212.2q-.237-1.509-.528-2.71l.909-.582a23.228,23.228,0,0,1-.891,2.8,14.7,14.7,0,0,1-1.237,2.419,20.1,20.1,0,0,1-1.855,2.456q-1.11,1.274-2.711,2.874a3.425,3.425,0,0,1-.928-.054,3.265,3.265,0,0,1-.819-.273q-.218-3.384-.709-6.512t-1.037-5.348a4.653,4.653,0,0,0-.764-1.819q-.437-.509-1.856-.437c0-.1.012-.3.037-.619a2.816,2.816,0,0,1,.145-.764,5.736,5.736,0,0,0,1.31-.327q.691-.254,1.328-.564A5.4,5.4,0,0,0,254.6,202.138Z" transform="translate(-186.579 -193.297)" fill="#446c90"/>
      <path id="Path_7" data-name="Path 7" d="M324.052,202.138a10.482,10.482,0,0,1,2.62.327,7.231,7.231,0,0,1,2.074.837,13.879,13.879,0,0,0-.691,3.929,2.8,2.8,0,0,1-.818.255,6.039,6.039,0,0,1-.964.073,4.969,4.969,0,0,0-.619-2.929,2.223,2.223,0,0,0-1.856-.782,2.685,2.685,0,0,0-1.619.419,1.779,1.779,0,0,0-.71,1.037,1.919,1.919,0,0,0,.218,1.455,5.943,5.943,0,0,0,1.128,1.364q.727.674,1.546,1.4a13.448,13.448,0,0,1,1.51,1.583,5.928,5.928,0,0,1,1.037,1.946,4.837,4.837,0,0,1,.054,2.474,4.565,4.565,0,0,1-1.019,2.183,4.755,4.755,0,0,1-1.892,1.31,7.237,7.237,0,0,1-2.619.437,9.08,9.08,0,0,1-2.984-.455,9.285,9.285,0,0,1-2.073-.964,15.217,15.217,0,0,0,.455-2.146q.127-.982.164-1.819a3.362,3.362,0,0,1,1.746-.327,5.529,5.529,0,0,0,.545,2.911,2.451,2.451,0,0,0,2.365,1.128,2.928,2.928,0,0,0,1.691-.418,1.74,1.74,0,0,0,.746-1.073,2.187,2.187,0,0,0-.382-1.728,10.186,10.186,0,0,0-1.491-1.674q-.928-.854-1.819-1.856a7.776,7.776,0,0,1-1.4-2.237,5.331,5.331,0,0,1,.746-4.912,4.375,4.375,0,0,1,1.765-1.292A6.591,6.591,0,0,1,324.052,202.138Z" transform="translate(-227.394 -193.297)" fill="#446c90"/>
      <path id="Path_8" data-name="Path 8" d="M352.62,240.063a2.129,2.129,0,0,1-1.79-.786,2.332,2.332,0,0,1-.349-2.009,2.549,2.549,0,0,1,.851-1.462,2.35,2.35,0,0,1,1.593-.589,2.053,2.053,0,0,1,1.2.349,2.191,2.191,0,0,1,.764.961,2.25,2.25,0,0,1,.088,1.4,2.777,2.777,0,0,1-.786,1.55A2.174,2.174,0,0,1,352.62,240.063Z" transform="translate(-248.567 -213.883)" fill="#446c90"/>
      <path id="Path_9" data-name="Path 9" d="M375.075,219.456a3.935,3.935,0,0,1-2.583-.782,4.137,4.137,0,0,1-1.328-2.092,9.161,9.161,0,0,1-.327-2.892,16.916,16.916,0,0,1,.418-3.183,15.63,15.63,0,0,1,1.128-3.311,10.674,10.674,0,0,1,1.765-2.656,7.6,7.6,0,0,1,2.4-1.765,7.278,7.278,0,0,1,3.111-.637,8.09,8.09,0,0,1,1.892.218,4.04,4.04,0,0,1,1.492.655q-.292.91-.509,1.928t-.327,2a2.894,2.894,0,0,1-1.746.145,4.188,4.188,0,0,0-.309-2.492,1.61,1.61,0,0,0-1.437-.673,2.843,2.843,0,0,0-2.165.91,6.42,6.42,0,0,0-1.346,2.31,17.777,17.777,0,0,0-.746,2.892,23.306,23.306,0,0,0-.255,2.347,9.01,9.01,0,0,0,.127,2.256,3.274,3.274,0,0,0,.8,1.673,2.259,2.259,0,0,0,1.728.637,4.136,4.136,0,0,0,2.074-.582,7.936,7.936,0,0,0,1.892-1.528,1.433,1.433,0,0,1,.455.436,4.352,4.352,0,0,1,.309.582A9.275,9.275,0,0,1,378.4,218.6,7.511,7.511,0,0,1,375.075,219.456Z" transform="translate(-261.275 -193.297)" fill="#446c90"/>
      <path id="Path_10" data-name="Path 10" d="M411.856,219.456a5.4,5.4,0,0,1-3.566-1.146,5.607,5.607,0,0,1-1.855-3.111,10.483,10.483,0,0,1,0-4.439,12.475,12.475,0,0,1,1.783-4.512,9.515,9.515,0,0,1,3.129-3.02,7.76,7.76,0,0,1,4-1.092,5.513,5.513,0,0,1,3.511,1.073,5.446,5.446,0,0,1,1.874,2.947,9.818,9.818,0,0,1,.073,4.311,12.389,12.389,0,0,1-1.728,4.621,10.05,10.05,0,0,1-3.147,3.2A7.513,7.513,0,0,1,411.856,219.456Zm.473-1.746a2.961,2.961,0,0,0,2.055-.91,8.265,8.265,0,0,0,1.71-2.456,13.881,13.881,0,0,0,1.11-3.511,9.984,9.984,0,0,0-.073-4.984,2.41,2.41,0,0,0-2.329-1.965,3.635,3.635,0,0,0-2.874,1.8,11.915,11.915,0,0,0-1.892,4.712,13.859,13.859,0,0,0-.255,3.766,5.353,5.353,0,0,0,.8,2.6A2.025,2.025,0,0,0,412.329,217.709Z" transform="translate(-283.28 -193.297)" fill="#446c90"/>
      <path id="Path_11" data-name="Path 11" d="M472.715,219.456a1.968,1.968,0,0,1-1.637-.6,2.784,2.784,0,0,1-.4-1.891,23.529,23.529,0,0,1,.51-3.366l.946-4.147a12.016,12.016,0,0,0,.455-3.584q-.128-1.073-.928-1.073a3.739,3.739,0,0,0-2.128,1.073,11.411,11.411,0,0,0-2.492,3.2,18.359,18.359,0,0,0-1.856,5.33l-.909,4.729H461l1.674-8.186a30.1,30.1,0,0,0,.637-3.857,4.018,4.018,0,0,0-.145-1.8.782.782,0,0,0-.746-.491,3.545,3.545,0,0,0-2.129,1.128,12.011,12.011,0,0,0-2.4,3.256,18.818,18.818,0,0,0-1.765,5.221l-.909,4.729H451.9l2-10.587a13.2,13.2,0,0,0,.309-2.438.873.873,0,0,0-.528-.91,5.482,5.482,0,0,0-1.674-.182,2.852,2.852,0,0,1,.018-.71,2.2,2.2,0,0,1,.2-.673,13.424,13.424,0,0,0,1.528-.309,18.723,18.723,0,0,0,1.892-.582,14.765,14.765,0,0,0,1.455-.6,1.1,1.1,0,0,1,.764.764,3.515,3.515,0,0,1,0,1.6,24.833,24.833,0,0,1-.6,2.583,17.175,17.175,0,0,1-.709,1.928h.037l.545-1.2a10.129,10.129,0,0,1,1.073-1.765,14.517,14.517,0,0,1,1.637-1.856,9.173,9.173,0,0,1,1.964-1.455,4.213,4.213,0,0,1,2.019-.564,2.833,2.833,0,0,1,1.492.418,2.627,2.627,0,0,1,1.055,1.328,4.51,4.51,0,0,1,.109,2.4,12.813,12.813,0,0,1-.8,2.692h.037l.545-1.2a8.643,8.643,0,0,1,1.11-1.8,14.5,14.5,0,0,1,1.728-1.855,9.985,9.985,0,0,1,2.055-1.455,4.488,4.488,0,0,1,2.092-.564,2.477,2.477,0,0,1,2.474,1.928,9.541,9.541,0,0,1-.182,5.239l-1.091,4.257q-.4,1.528-.51,2.256a1.638,1.638,0,0,0,.018.928.5.5,0,0,0,.455.2,1.943,1.943,0,0,0,.964-.255,6.729,6.729,0,0,0,1.11-.837,1.908,1.908,0,0,1,.437.528,1.7,1.7,0,0,1,.182.636,8.548,8.548,0,0,1-2.183,1.856A4.533,4.533,0,0,1,472.715,219.456Z" transform="translate(-311.714 -193.297)" fill="#446c90"/>
    </g>
  </g>
  <g id="Group_4" data-name="Group 4" transform="translate(45.909)">
    <path id="Path_12" data-name="Path 12" d="M213.577,132.527a12.67,12.67,0,0,1-2.9-1.071,35.941,35.941,0,0,1-6.8-4.6c-.2-.169-.4-.343-.6-.516-.01-.009-.011-.028-.018-.047,2.367,1.479,4.678,3.059,7.476,3.638a1.3,1.3,0,0,0,.247,0c-.086-.18-.168-.328-.23-.485-.147-.372-.006-.6.388-.641a5.134,5.134,0,0,1,1.894.24,18.45,18.45,0,0,1,3.65,1.383,25.005,25.005,0,0,0,6.766,2.277,29.057,29.057,0,0,0,4.517.506,24.715,24.715,0,0,0,5.808-.416c1.334-.273,2.657-.607,4-.855a24.589,24.589,0,0,1,2.689-.323c.979-.071,1.964-.12,2.945-.1a20.825,20.825,0,0,1,11.736,3.5c.522.363,1,.788,1.5,1.184l-.045.063c-.387-.168-.772-.341-1.161-.5a26.315,26.315,0,0,0-6.849-1.819,26.928,26.928,0,0,0-4.751-.205,28.731,28.731,0,0,0-9,1.857,10.168,10.168,0,0,1-1.937.449,19.048,19.048,0,0,1-3.595.269,24.419,24.419,0,0,1-7.034-1.185,29.92,29.92,0,0,1-7.553-3.61,4.068,4.068,0,0,0-1.052-.448c-.358-.112-.583.12-.474.477C213.291,131.873,213.438,132.18,213.577,132.527Z" transform="translate(-202.915 -126.291)" fill="#6d6e71" fill-rule="evenodd"/>
    <path id="Path_13" data-name="Path 13" d="M235.46,148.087c-.623.046-1.165.106-1.708.122-.8.024-1.606.058-2.4.011-1-.059-2.007-.158-3-.306a31.161,31.161,0,0,1-7.081-1.954,37.907,37.907,0,0,1-11.415-7.313,51.542,51.542,0,0,1-7.45-8.606.315.315,0,0,1-.056-.115c.465.571.916,1.152,1.4,1.709a41.661,41.661,0,0,0,21.185,13.629,38.043,38.043,0,0,0,5.47,1.028,40.6,40.6,0,0,0,5.491.27,3.762,3.762,0,0,1,1.671.319c.561.26.668.66.283,1.147a7.343,7.343,0,0,1-.631.634,1.47,1.47,0,0,0-.181.179c-.144.2-.088.387.158.4a4.144,4.144,0,0,0,.986-.042,29.788,29.788,0,0,0,7.631-2.578c1.472-.7,2.929-1.426,4.46-2.173-.473.423-.887.816-1.324,1.181a20.717,20.717,0,0,1-7.634,4.154,17.251,17.251,0,0,1-5.322.566,4.349,4.349,0,0,1-1.171-.235.594.594,0,0,1-.335-1.005,7.173,7.173,0,0,1,.7-.774C235.249,148.265,235.329,148.2,235.46,148.087Z" transform="translate(-202.346 -128.552)" fill="#6d6e71" fill-rule="evenodd"/>
    <path id="Path_14" data-name="Path 14" d="M248.88,143.212c1.731.321,3.458.672,5.2.95,1.143.182,2.3.3,3.454.371q2.284.148,4.576.182c1.288.017,2.579-.008,3.865-.081,1.413-.08,2.828-.182,4.23-.373q2.947-.4,5.875-.951a76.88,76.88,0,0,0,11.51-3.2,89.883,89.883,0,0,0,11.127-4.806c2.121-1.1,4.2-2.28,6.3-3.424a.13.13,0,0,1,.113-.012c-.425.316-.845.641-1.275.949a70.8,70.8,0,0,1-21.657,10.447,54.1,54.1,0,0,1-6.725,1.519q-2.184.338-4.381.581c-1.008.113-2.024.167-3.039.218-.972.048-1.947.1-2.918.075q-2.236-.057-4.471-.221a55.179,55.179,0,0,1-11.7-2.233.576.576,0,0,1-.069-.034C248.886,143.179,248.882,143.2,248.88,143.212Z" transform="translate(-231.304 -129.753)" fill="#6d6e71" fill-rule="evenodd"/>
    <path id="Path_15" data-name="Path 15" d="M328.769,163.516c-.165.37-.335.739-.5,1.112a17.133,17.133,0,0,0-1.121,3.18,3.727,3.727,0,0,0-.063,1.058.392.392,0,0,0,.58.344,3.779,3.779,0,0,0,.96-.522c.865-.7,1.689-1.442,2.551-2.144,1.232-1,2.482-1.983,3.728-2.968a3.555,3.555,0,0,1,.44-.261,1.851,1.851,0,0,1,.182-.07c-.031.062-.035.092-.055.11a69.084,69.084,0,0,1-7.142,6.269,18.554,18.554,0,0,1-1.981,1.217,2.173,2.173,0,0,1-.809.193.373.373,0,0,1-.447-.406,4,4,0,0,1,.121-1.058A17.777,17.777,0,0,1,327,165.7a21.7,21.7,0,0,1,1.324-1.879,2.31,2.31,0,0,1,.4-.339Z" transform="translate(-278.734 -149.288)" fill="#6d6e71" fill-rule="evenodd"/>
  </g>
</svg>
