<svg id="Group_44" data-name="Group 44" xmlns="http://www.w3.org/2000/svg" width="260.701" height="72.503" viewBox="0 0 260.701 72.503">
  <g id="Group_3" data-name="Group 3" transform="translate(0 31.239)">
    <g id="Group_2" data-name="Group 2" transform="translate(0 0)">
      <path id="Path_1" data-name="Path 1" d="M80.86,220.825a13.228,13.228,0,0,1,.172-1.376,6.423,6.423,0,0,1,.286-1.09,8.528,8.528,0,0,0,2.609-.774,2.83,2.83,0,0,0,1.291-1.548,17.754,17.754,0,0,0,.745-2.953l4.186-24.2a7.288,7.288,0,0,0,.086-2.609,2.1,2.1,0,0,0-1.032-1.434,6.385,6.385,0,0,0-2.494-.66,6.65,6.65,0,0,1-.114-2.466q1.088.058,2.58.115t2.982.057H94.68q1.146,0,3.44-.086t4.415-.086q6.25,0,8.946,3.412t1.548,9.433a13.614,13.614,0,0,1-2.724,6.193,13.965,13.965,0,0,1-5.247,4.072,16.71,16.71,0,0,1-7,1.433,11.958,11.958,0,0,1-2.179-.172,5.239,5.239,0,0,1-1.548-.516,3.6,3.6,0,0,1,.114-1.2,3.437,3.437,0,0,1,.4-1.09,9.807,9.807,0,0,0,1.319.286,10.448,10.448,0,0,0,1.606.115,9.142,9.142,0,0,0,6.394-2.265,11.757,11.757,0,0,0,3.355-6.68q.974-4.989-.832-7.741t-6.853-2.753a18.88,18.88,0,0,0-2.065.114,15.305,15.305,0,0,0-2.294.459l.917-1.433L91.411,212.51a14.074,14.074,0,0,0-.316,3.326,1.913,1.913,0,0,0,1.089,1.663,11.483,11.483,0,0,0,3.3.86,4.782,4.782,0,0,1,.2,1.118,11.347,11.347,0,0,1-.029,1.348q-2.123-.116-3.727-.143t-3.555-.029q-2.123,0-3.842.029T80.86,220.825Z" transform="translate(-80.86 -179.938)" fill="#446c90"/>
      <path id="Path_2" data-name="Path 2" d="M139.74,220.467a3.568,3.568,0,0,1-2.81-1.032,4.42,4.42,0,0,1-.975-2.9,14.7,14.7,0,0,1,.631-4.33l2.351-8.257a27.842,27.842,0,0,0,1-4.244q.142-1.318-.631-1.663a7.223,7.223,0,0,0-2.666-.344,4.757,4.757,0,0,1,.029-1.176,3.442,3.442,0,0,1,.315-1,13.089,13.089,0,0,0,2.208-.516,25.811,25.811,0,0,0,2.494-.917,17.889,17.889,0,0,0,1.893-.918,3.373,3.373,0,0,1,2.15,2.494,12.294,12.294,0,0,1-.6,5.3l-3.154,11.068a10.866,10.866,0,0,0-.66,3.612.87.87,0,0,0,.946.8,3.032,3.032,0,0,0,1.348-.4,6.843,6.843,0,0,0,1.634-1.261,2.051,2.051,0,0,1,.717.745,2.708,2.708,0,0,1,.315,1.089,17.1,17.1,0,0,1-3.3,2.81A6.039,6.039,0,0,1,139.74,220.467Zm4.989-33.6a2.31,2.31,0,0,1-2.035-.946,3.1,3.1,0,0,1-.373-2.438,4.692,4.692,0,0,1,1.376-2.551,3.382,3.382,0,0,1,2.351-.947,2.449,2.449,0,0,1,2.122.947,3.1,3.1,0,0,1,.344,2.551,4.312,4.312,0,0,1-1.319,2.438A3.524,3.524,0,0,1,144.729,186.864Z" transform="translate(-103.155 -179.237)" fill="#446c90"/>
      <path id="Path_3" data-name="Path 3" d="M163.84,219.961a3.654,3.654,0,0,1-2.982-1.175,5.111,5.111,0,0,1-.917-3.469q0-.86.086-1.807t.345-2.581q.257-1.634.774-4.358t1.376-7.025q.861-4.3,2.122-10.723a22.643,22.643,0,0,0,.516-3.813q0-1.174-.8-1.462a8.622,8.622,0,0,0-2.638-.287,11.972,11.972,0,0,1,.057-1.2,2.427,2.427,0,0,1,.287-.975,22.429,22.429,0,0,0,2.437-.488,28.565,28.565,0,0,0,3.01-.917,23.274,23.274,0,0,0,2.294-.947,1.741,1.741,0,0,1,1.2,1.2,5.309,5.309,0,0,1,0,2.466q-1.147,6.48-2.322,12.529t-2.323,11.67q-.8,4.072-.975,6.079a6.333,6.333,0,0,0,.115,2.638.919.919,0,0,0,.86.63,2.85,2.85,0,0,0,1.291-.373,7.1,7.1,0,0,0,1.634-1.29,3.015,3.015,0,0,1,.688.832,3.913,3.913,0,0,1,.344.889,15.45,15.45,0,0,1-3.125,2.781A6.061,6.061,0,0,1,163.84,219.961Z" transform="translate(-112.848 -178.73)" fill="#446c90"/>
      <path id="Path_4" data-name="Path 4" d="M187.922,219.961a3.654,3.654,0,0,1-2.982-1.175,5.111,5.111,0,0,1-.917-3.469q0-.86.086-1.807t.345-2.581q.257-1.634.774-4.358t1.376-7.025q.861-4.3,2.122-10.723a22.661,22.661,0,0,0,.516-3.813q0-1.174-.8-1.462a8.622,8.622,0,0,0-2.638-.287,11.981,11.981,0,0,1,.057-1.2,2.427,2.427,0,0,1,.287-.975,22.428,22.428,0,0,0,2.437-.488,28.565,28.565,0,0,0,3.01-.917,23.271,23.271,0,0,0,2.294-.947,1.741,1.741,0,0,1,1.2,1.2,5.293,5.293,0,0,1,0,2.466q-1.147,6.48-2.322,12.529t-2.323,11.67q-.8,4.072-.974,6.079a6.333,6.333,0,0,0,.115,2.638.919.919,0,0,0,.86.63,2.85,2.85,0,0,0,1.291-.373,7.1,7.1,0,0,0,1.634-1.29,3,3,0,0,1,.688.832,3.915,3.915,0,0,1,.344.889,15.451,15.451,0,0,1-3.125,2.781A6.061,6.061,0,0,1,187.922,219.961Z" transform="translate(-122.589 -178.73)" fill="#446c90"/>
      <path id="Path_5" data-name="Path 5" d="M215.916,229.434a8.511,8.511,0,0,1-5.62-1.806,8.828,8.828,0,0,1-2.925-4.9,16.543,16.543,0,0,1,0-7,19.644,19.644,0,0,1,2.81-7.111,15,15,0,0,1,4.931-4.759,12.229,12.229,0,0,1,6.308-1.72,8.69,8.69,0,0,1,5.534,1.691,8.579,8.579,0,0,1,2.953,4.645,15.464,15.464,0,0,1,.115,6.8,19.537,19.537,0,0,1-2.724,7.283,15.835,15.835,0,0,1-4.961,5.046A11.838,11.838,0,0,1,215.916,229.434Zm.745-2.753a4.668,4.668,0,0,0,3.24-1.434,13.038,13.038,0,0,0,2.7-3.871,21.9,21.9,0,0,0,1.749-5.534,15.73,15.73,0,0,0-.115-7.856q-1.032-3.1-3.67-3.1-2.466,0-4.53,2.838a18.762,18.762,0,0,0-2.982,7.426,21.815,21.815,0,0,0-.4,5.935,8.443,8.443,0,0,0,1.261,4.1A3.193,3.193,0,0,0,216.661,226.681Z" transform="translate(-131.883 -188.203)" fill="#446c90"/>
      <path id="Path_6" data-name="Path 6" d="M256.8,202.138a3.5,3.5,0,0,1,1.634.974,4.594,4.594,0,0,1,.86,1.864q.314,1.234.717,3.527.572,2.868,1.032,5.936t.774,5.849q.314,2.782.43,4.846h-.688a33.955,33.955,0,0,0,4.73-6.623,16.043,16.043,0,0,0,1.835-6.566,25.662,25.662,0,0,0-1-7.971,6.238,6.238,0,0,0,3.154-1.835,2.969,2.969,0,0,1,1.4.717,4.234,4.234,0,0,1,.86,1.749q.372,1.262.889,3.842.63,2.81,1.176,5.907t.975,5.877q.43,2.783.545,4.846h-.688a39.823,39.823,0,0,0,5.419-8.085,14.32,14.32,0,0,0,1.634-5.677,5.076,5.076,0,0,0-.889-3.3,4.113,4.113,0,0,0-2.781-1.29,3.427,3.427,0,0,1-.316-1,4.347,4.347,0,0,1-.029-1.118q1.032-.286,2.151-.717t2.092-.917a9.97,9.97,0,0,0,1.434-.832,4.906,4.906,0,0,1,2.523,1.978,7.288,7.288,0,0,1,.917,3.986,14.376,14.376,0,0,1-1.06,4.989,31.216,31.216,0,0,1-3.9,6.766,89.513,89.513,0,0,1-8.285,9.577,5.4,5.4,0,0,1-1.463-.086,5.133,5.133,0,0,1-1.29-.43q-.23-3.039-.545-5.792t-.688-5.133q-.374-2.379-.832-4.271l1.433-.918a36.615,36.615,0,0,1-1.4,4.416,23.176,23.176,0,0,1-1.95,3.813,31.674,31.674,0,0,1-2.924,3.871q-1.75,2.008-4.272,4.53a5.4,5.4,0,0,1-1.462-.086,5.145,5.145,0,0,1-1.291-.43q-.344-5.334-1.118-10.264t-1.634-8.43a7.333,7.333,0,0,0-1.2-2.867q-.688-.8-2.925-.688c0-.152.019-.478.058-.975a4.438,4.438,0,0,1,.229-1.2,9.041,9.041,0,0,0,2.064-.516q1.089-.4,2.093-.889A8.511,8.511,0,0,0,256.8,202.138Z" transform="translate(-149.59 -188.203)" fill="#446c90"/>
      <path id="Path_7" data-name="Path 7" d="M328.475,202.138a16.522,16.522,0,0,1,4.129.516,11.4,11.4,0,0,1,3.268,1.319,21.876,21.876,0,0,0-1.089,6.193,4.417,4.417,0,0,1-1.29.4,9.516,9.516,0,0,1-1.52.115q0-3.383-.975-4.617a3.5,3.5,0,0,0-2.925-1.233,4.233,4.233,0,0,0-2.551.66,2.8,2.8,0,0,0-1.119,1.635,3.025,3.025,0,0,0,.344,2.294,9.369,9.369,0,0,0,1.778,2.15q1.147,1.063,2.437,2.208a21.2,21.2,0,0,1,2.38,2.495,9.343,9.343,0,0,1,1.634,3.068,7.623,7.623,0,0,1,.086,3.9,7.2,7.2,0,0,1-1.606,3.44,7.494,7.494,0,0,1-2.982,2.064,11.407,11.407,0,0,1-4.128.688,14.313,14.313,0,0,1-4.7-.717,14.637,14.637,0,0,1-3.268-1.52,23.98,23.98,0,0,0,.717-3.383q.2-1.548.258-2.868a5.3,5.3,0,0,1,2.753-.516,8.714,8.714,0,0,0,.86,4.588q.975,1.778,3.728,1.778a4.615,4.615,0,0,0,2.666-.66,2.742,2.742,0,0,0,1.176-1.692,3.448,3.448,0,0,0-.6-2.723,16.054,16.054,0,0,0-2.351-2.638q-1.463-1.347-2.867-2.925a12.257,12.257,0,0,1-2.208-3.526,8.4,8.4,0,0,1,1.175-7.742,6.9,6.9,0,0,1,2.781-2.036A10.389,10.389,0,0,1,328.475,202.138Z" transform="translate(-176.127 -188.203)" fill="#446c90"/>
      <path id="Path_8" data-name="Path 8" d="M353.9,242.855a3.356,3.356,0,0,1-2.821-1.238,3.676,3.676,0,0,1-.55-3.166,4.018,4.018,0,0,1,1.341-2.3,3.7,3.7,0,0,1,2.512-.929,3.235,3.235,0,0,1,1.892.55,3.452,3.452,0,0,1,1.2,1.514,3.546,3.546,0,0,1,.138,2.2,4.377,4.377,0,0,1-1.24,2.443A3.426,3.426,0,0,1,353.9,242.855Z" transform="translate(-189.893 -201.59)" fill="#446c90"/>
      <path id="Path_9" data-name="Path 9" d="M377.521,229.434a6.2,6.2,0,0,1-4.071-1.233,6.521,6.521,0,0,1-2.093-3.3,14.439,14.439,0,0,1-.515-4.559,26.656,26.656,0,0,1,.659-5.017,24.637,24.637,0,0,1,1.778-5.219,16.824,16.824,0,0,1,2.781-4.186,11.986,11.986,0,0,1,3.785-2.781,11.471,11.471,0,0,1,4.9-1,12.751,12.751,0,0,1,2.982.344,6.368,6.368,0,0,1,2.351,1.032q-.46,1.434-.8,3.04t-.516,3.154a4.56,4.56,0,0,1-2.752.229q.229-2.866-.488-3.927a2.537,2.537,0,0,0-2.265-1.061,4.482,4.482,0,0,0-3.412,1.434,10.118,10.118,0,0,0-2.122,3.641,28.017,28.017,0,0,0-1.175,4.559,36.74,36.74,0,0,0-.4,3.7,14.2,14.2,0,0,0,.2,3.556,5.161,5.161,0,0,0,1.261,2.637,3.561,3.561,0,0,0,2.724,1,6.519,6.519,0,0,0,3.269-.918,12.509,12.509,0,0,0,2.982-2.408,2.257,2.257,0,0,1,.717.688,6.866,6.866,0,0,1,.488.918,14.62,14.62,0,0,1-5.017,4.33A11.838,11.838,0,0,1,377.521,229.434Z" transform="translate(-198.154 -188.203)" fill="#446c90"/>
      <path id="Path_10" data-name="Path 10" d="M415.116,229.434a8.514,8.514,0,0,1-5.62-1.806,8.837,8.837,0,0,1-2.924-4.9,16.524,16.524,0,0,1,0-7,19.665,19.665,0,0,1,2.81-7.111,15,15,0,0,1,4.931-4.759,12.231,12.231,0,0,1,6.308-1.72,8.689,8.689,0,0,1,5.534,1.691,8.584,8.584,0,0,1,2.953,4.645,15.475,15.475,0,0,1,.114,6.8,19.526,19.526,0,0,1-2.723,7.283,15.84,15.84,0,0,1-4.96,5.046A11.842,11.842,0,0,1,415.116,229.434Zm.745-2.753a4.668,4.668,0,0,0,3.24-1.434,13.028,13.028,0,0,0,2.7-3.871,21.879,21.879,0,0,0,1.75-5.534,15.735,15.735,0,0,0-.114-7.856q-1.033-3.1-3.671-3.1-2.466,0-4.53,2.838a18.78,18.78,0,0,0-2.982,7.426,21.848,21.848,0,0,0-.4,5.935,8.437,8.437,0,0,0,1.262,4.1A3.192,3.192,0,0,0,415.861,226.681Z" transform="translate(-212.459 -188.203)" fill="#446c90"/>
      <path id="Path_11" data-name="Path 11" d="M484.705,229.434a3.1,3.1,0,0,1-2.581-.947,4.388,4.388,0,0,1-.631-2.981,37.076,37.076,0,0,1,.8-5.3l1.491-6.537a18.938,18.938,0,0,0,.717-5.648q-.2-1.691-1.462-1.692a5.894,5.894,0,0,0-3.354,1.692,17.984,17.984,0,0,0-3.928,5.046,28.938,28.938,0,0,0-2.925,8.4l-1.433,7.454H466.24l2.638-12.9a47.471,47.471,0,0,0,1-6.079,6.333,6.333,0,0,0-.229-2.838,1.233,1.233,0,0,0-1.176-.775,5.587,5.587,0,0,0-3.355,1.778,18.931,18.931,0,0,0-3.784,5.132,29.658,29.658,0,0,0-2.781,8.229l-1.433,7.454H451.9l3.154-16.687a20.813,20.813,0,0,0,.488-3.842,1.376,1.376,0,0,0-.832-1.434,8.641,8.641,0,0,0-2.638-.286,4.5,4.5,0,0,1,.029-1.119,3.465,3.465,0,0,1,.316-1.06,21.152,21.152,0,0,0,2.409-.488,29.5,29.5,0,0,0,2.982-.917,23.274,23.274,0,0,0,2.294-.947,1.742,1.742,0,0,1,1.2,1.2,5.542,5.542,0,0,1,0,2.523,39.133,39.133,0,0,1-.947,4.071,27.075,27.075,0,0,1-1.118,3.04h.058l.86-1.893a15.969,15.969,0,0,1,1.692-2.781,22.88,22.88,0,0,1,2.581-2.925,14.46,14.46,0,0,1,3.1-2.293,6.641,6.641,0,0,1,3.183-.889,4.465,4.465,0,0,1,2.351.66,4.141,4.141,0,0,1,1.663,2.093,7.109,7.109,0,0,1,.172,3.785,20.185,20.185,0,0,1-1.261,4.243h.058l.86-1.893a13.623,13.623,0,0,1,1.75-2.839,22.862,22.862,0,0,1,2.724-2.924,15.737,15.737,0,0,1,3.24-2.294,7.074,7.074,0,0,1,3.3-.889,3.9,3.9,0,0,1,3.9,3.039q1.031,3.04-.287,8.258l-1.72,6.709q-.631,2.408-.8,3.555a2.581,2.581,0,0,0,.029,1.462.781.781,0,0,0,.717.316,3.062,3.062,0,0,0,1.519-.4,10.608,10.608,0,0,0,1.749-1.319,3.008,3.008,0,0,1,.689.832,2.688,2.688,0,0,1,.286,1,13.473,13.473,0,0,1-3.44,2.925A7.146,7.146,0,0,1,484.705,229.434Z" transform="translate(-230.942 -188.203)" fill="#446c90"/>
    </g>
  </g>
  <g id="Group_4" data-name="Group 4" transform="translate(72.36)">
    <path id="Path_12" data-name="Path 12" d="M219.521,136.119a19.972,19.972,0,0,1-4.565-1.688,56.65,56.65,0,0,1-10.715-7.253c-.32-.266-.634-.541-.951-.814-.015-.014-.018-.043-.029-.074,3.73,2.331,7.374,4.821,11.783,5.734a2.054,2.054,0,0,0,.389,0c-.136-.284-.266-.517-.363-.764-.232-.586-.009-.943.611-1.011a8.091,8.091,0,0,1,2.985.379,29.079,29.079,0,0,1,5.752,2.179,39.412,39.412,0,0,0,10.665,3.59,45.8,45.8,0,0,0,7.119.8,38.953,38.953,0,0,0,9.154-.655c2.1-.43,4.188-.957,6.3-1.348a38.755,38.755,0,0,1,4.238-.508c1.543-.113,3.095-.189,4.642-.155,6.666.15,12.938,1.664,18.5,5.524.823.572,1.579,1.242,2.366,1.867l-.07.1c-.61-.265-1.216-.538-1.83-.793a41.476,41.476,0,0,0-10.795-2.866,42.443,42.443,0,0,0-7.489-.323,45.285,45.285,0,0,0-14.184,2.928,16.025,16.025,0,0,1-3.053.708,30.026,30.026,0,0,1-5.666.424,38.487,38.487,0,0,1-11.087-1.868,47.159,47.159,0,0,1-11.9-5.69,6.411,6.411,0,0,0-1.659-.706c-.564-.177-.919.189-.747.752C219.069,135.088,219.3,135.574,219.521,136.119Z" transform="translate(-202.716 -126.291)" fill="#6d6e71" fill-rule="evenodd"/>
    <path id="Path_13" data-name="Path 13" d="M254.539,158.551c-.982.073-1.836.167-2.692.192-1.261.037-2.531.091-3.788.018-1.581-.093-3.163-.249-4.729-.483a49.116,49.116,0,0,1-11.161-3.08,59.747,59.747,0,0,1-17.992-11.527,81.239,81.239,0,0,1-11.742-13.565.5.5,0,0,1-.088-.182c.732.9,1.444,1.815,2.2,2.694,8.994,10.48,19.965,17.893,33.392,21.482a59.961,59.961,0,0,0,8.621,1.621,63.987,63.987,0,0,0,8.655.425,5.93,5.93,0,0,1,2.634.5c.885.41,1.053,1.041.446,1.808a11.573,11.573,0,0,1-.995,1,2.317,2.317,0,0,0-.285.282c-.227.317-.138.61.248.638a6.532,6.532,0,0,0,1.554-.067,46.95,46.95,0,0,0,12.028-4.064c2.32-1.1,4.616-2.247,7.03-3.425-.745.667-1.4,1.286-2.087,1.862a32.653,32.653,0,0,1-12.033,6.548,27.19,27.19,0,0,1-8.388.892,6.854,6.854,0,0,1-1.845-.371.936.936,0,0,1-.528-1.585,11.311,11.311,0,0,1,1.106-1.22C254.207,158.831,254.332,158.735,254.539,158.551Z" transform="translate(-202.346 -127.762)" fill="#6d6e71" fill-rule="evenodd"/>
    <path id="Path_14" data-name="Path 14" d="M248.88,149.755c2.729.505,5.451,1.06,8.19,1.5,1.8.286,3.624.466,5.445.585q3.6.234,7.213.286c2.03.027,4.065-.013,6.092-.128,2.226-.126,4.458-.288,6.668-.588q4.644-.631,9.26-1.5a121.176,121.176,0,0,0,18.141-5.051,141.672,141.672,0,0,0,17.538-7.575c3.343-1.731,6.617-3.593,9.925-5.4a.206.206,0,0,1,.178-.019c-.67.5-1.332,1.01-2.01,1.5a111.6,111.6,0,0,1-34.135,16.466,85.277,85.277,0,0,1-10.6,2.394q-3.442.533-6.9.916c-1.589.178-3.191.264-4.789.343-1.532.076-3.069.156-4.6.118q-3.525-.089-7.048-.348A86.973,86.973,0,0,1,249,149.732a.91.91,0,0,1-.108-.053C248.89,149.7,248.884,149.73,248.88,149.755Z" transform="translate(-221.178 -128.543)" fill="#6d6e71" fill-rule="evenodd"/>
    <path id="Path_15" data-name="Path 15" d="M330.886,163.672c-.26.583-.529,1.164-.782,1.753a27,27,0,0,0-1.766,5.012,5.873,5.873,0,0,0-.1,1.668.617.617,0,0,0,.914.543,5.955,5.955,0,0,0,1.513-.823c1.364-1.1,2.663-2.273,4.021-3.379,1.942-1.58,3.912-3.125,5.876-4.678a5.6,5.6,0,0,1,.693-.411,2.918,2.918,0,0,1,.286-.11c-.049.1-.056.145-.086.174A108.889,108.889,0,0,1,330.2,173.3a29.245,29.245,0,0,1-3.122,1.917,3.425,3.425,0,0,1-1.276.3.587.587,0,0,1-.7-.641,6.3,6.3,0,0,1,.19-1.667,28.02,28.02,0,0,1,2.813-6.106,34.19,34.19,0,0,1,2.087-2.962,3.642,3.642,0,0,1,.629-.535Z" transform="translate(-252.023 -141.247)" fill="#6d6e71" fill-rule="evenodd"/>
  </g>
</svg>
