<svg xmlns="http://www.w3.org/2000/svg" width="20.38" height="23.573" viewBox="0 0 20.38 23.573">
  <g id="My_Account_Icon" data-name="My Account Icon" transform="translate(0.075 0.075)">
    <circle id="Ellipse_4" data-name="Ellipse 4" cx="4.875" cy="4.875" r="4.875" transform="translate(6.746 0.777)" fill="#dfeef7"/>
    <path id="Path_23" data-name="Path 23" d="M16.882,14.8A6.4,6.4,0,1,0,10.5,8.4,6.41,6.41,0,0,0,16.882,14.8Zm0-11.736A5.335,5.335,0,1,1,11.565,8.4,5.342,5.342,0,0,1,16.882,3.067Z" transform="translate(-6.767 -2)" fill="#1f3951" stroke="#1f3951" stroke-width="0.15"/>
    <path id="Path_26" data-name="Path 26" d="M26.136,37.622V35.567c0-3.578-2.255-6.46-5.054-6.46h-7a19.243,19.243,0,0,0,4.995,6.1A13.968,13.968,0,0,0,26.136,37.622Z" transform="translate(-6.615 -14.752)" fill="#dfeef7"/>
    <path id="Path_24" data-name="Path 24" d="M17.754,28H9.478C6.168,28,3.5,31.1,3.5,34.935v2.206a.461.461,0,0,0,.46.461h0a.461.461,0,0,0,.46-.461V34.935c0-3.254,2.253-5.867,5.057-5.867h8.275c2.8,0,5.057,2.614,5.057,5.867v2.206a.461.461,0,0,0,.46.461h0a.461.461,0,0,0,.46-.461V34.935C23.731,31.1,21.064,28,17.754,28Z" transform="translate(-3.501 -14.179)" fill="#1f3951" stroke="#1f3951" stroke-width="0.15"/>
  </g>
</svg>
